<?xml version="1.0" encoding="utf-8" standalone="no"?>
<!DOCTYPE svg PUBLIC "-//W3C//DTD SVG 1.1//EN"
  "http://www.w3.org/Graphics/SVG/1.1/DTD/svg11.dtd">
<svg xmlns:xlink="http://www.w3.org/1999/xlink" width="1154.867187pt" height="711.984828pt" viewBox="0 0 1154.867187 711.984828" xmlns="http://www.w3.org/2000/svg" version="1.1">
 <metadata>
  <rdf:RDF xmlns:dc="http://purl.org/dc/elements/1.1/" xmlns:cc="http://creativecommons.org/ns#" xmlns:rdf="http://www.w3.org/1999/02/22-rdf-syntax-ns#">
   <cc:Work>
    <dc:type rdf:resource="http://purl.org/dc/dcmitype/StillImage"/>
    <dc:date>2026-04-29T14:30:20.809781</dc:date>
    <dc:format>image/svg+xml</dc:format>
    <dc:creator>
     <cc:Agent>
      <dc:title>Matplotlib v3.10.0, https://matplotlib.org/</dc:title>
     </cc:Agent>
    </dc:creator>
   </cc:Work>
  </rdf:RDF>
 </metadata>
 <defs>
  <style type="text/css">*{stroke-linejoin: round; stroke-linecap: butt}</style>
 </defs>
 <g id="figure_1">
  <g id="patch_1">
   <path d="M 0 711.984828 
L 1154.867187 711.984828 
L 1154.867187 0 
L 0 0 
z
" style="fill: #ffffff"/>
  </g>
  <g id="axes_1">
   <g id="patch_2">
    <path d="M 265.284844 579.595016 
L 1122.084844 579.595016 
L 1122.084844 57.955016 
L 265.284844 57.955016 
z
" style="fill: #ffffff"/>
   </g>
   <g id="patch_3">
    <path d="M 265.284844 555.884107 
L 967.579926 555.884107 
L 967.579926 506.592611 
L 265.284844 506.592611 
z
" clip-path="url(#p0198ecc352)" style="fill: #ffd100; stroke: #005587; stroke-width: 0.8; stroke-linejoin: miter"/>
   </g>
   <g id="patch_4">
    <path d="M 265.284844 470.898769 
L 485.441346 470.898769 
L 485.441346 421.607274 
L 265.284844 421.607274 
z
" clip-path="url(#p0198ecc352)" style="fill: #2774ae; stroke: #005587; stroke-width: 0.8; stroke-linejoin: miter"/>
   </g>
   <g id="patch_5">
    <path d="M 265.284844 385.913432 
L 383.662539 385.913432 
L 383.662539 336.621936 
L 265.284844 336.621936 
z
" clip-path="url(#p0198ecc352)" style="fill: #2774ae; stroke: #005587; stroke-width: 0.8; stroke-linejoin: miter"/>
   </g>
   <g id="patch_6">
    <path d="M 265.284844 300.928095 
L 368.083356 300.928095 
L 368.083356 251.636599 
L 265.284844 251.636599 
z
" clip-path="url(#p0198ecc352)" style="fill: #2774ae; stroke: #005587; stroke-width: 0.8; stroke-linejoin: miter"/>
   </g>
   <g id="patch_7">
    <path d="M 265.284844 215.942758 
L 316.33821 215.942758 
L 316.33821 166.651262 
L 265.284844 166.651262 
z
" clip-path="url(#p0198ecc352)" style="fill: #2774ae; stroke: #005587; stroke-width: 0.8; stroke-linejoin: miter"/>
   </g>
   <g id="patch_8">
    <path d="M 265.284844 130.95742 
L 265.284844 130.95742 
L 265.284844 81.665925 
L 265.284844 81.665925 
z
" clip-path="url(#p0198ecc352)" style="fill: #2774ae; stroke: #005587; stroke-width: 0.8; stroke-linejoin: miter"/>
   </g>
   <g id="matplotlib.axis_1">
    <g id="xtick_1">
     <g id="line2d_1">
      <defs>
       <path id="mb5a4432800" d="M 0 0 
L 0 3.5 
" style="stroke: #333333; stroke-width: 0.8"/>
      </defs>
      <g>
       <use xlink:href="#mb5a4432800" x="265.284844" y="579.595016" style="fill: #333333; stroke: #333333; stroke-width: 0.8"/>
      </g>
     </g>
     <g id="text_1">
      <!-- 0 -->
      <g style="fill: #333333" transform="translate(261.115313 599.805953) scale(0.15 -0.15)">
       <defs>
        <path id="HelveticaNeue-30" d="M 845 2234 
Q 845 2400 848 2601 
Q 851 2803 880 3004 
Q 909 3206 963 3398 
Q 1018 3590 1123 3734 
Q 1229 3878 1389 3968 
Q 1549 4058 1779 4058 
Q 2010 4058 2170 3968 
Q 2330 3878 2435 3734 
Q 2541 3590 2595 3398 
Q 2650 3206 2678 3004 
Q 2707 2803 2710 2601 
Q 2714 2400 2714 2234 
Q 2714 1978 2698 1661 
Q 2682 1344 2595 1065 
Q 2509 787 2317 595 
Q 2125 403 1779 403 
Q 1434 403 1242 595 
Q 1050 787 963 1065 
Q 877 1344 861 1661 
Q 845 1978 845 2234 
z
M 269 2227 
Q 269 1978 281 1709 
Q 294 1440 345 1184 
Q 397 928 493 701 
Q 589 474 755 301 
Q 922 128 1174 29 
Q 1427 -70 1779 -70 
Q 2138 -70 2387 29 
Q 2637 128 2803 301 
Q 2970 474 3066 701 
Q 3162 928 3213 1184 
Q 3264 1440 3277 1709 
Q 3290 1978 3290 2227 
Q 3290 2477 3277 2745 
Q 3264 3014 3213 3270 
Q 3162 3526 3066 3756 
Q 2970 3987 2803 4160 
Q 2637 4333 2384 4435 
Q 2131 4538 1779 4538 
Q 1427 4538 1174 4435 
Q 922 4333 755 4160 
Q 589 3987 493 3756 
Q 397 3526 345 3270 
Q 294 3014 281 2745 
Q 269 2477 269 2227 
z
" transform="scale(0.015625)"/>
       </defs>
       <use xlink:href="#HelveticaNeue-30"/>
      </g>
     </g>
    </g>
    <g id="xtick_2">
     <g id="line2d_2">
      <g>
       <use xlink:href="#mb5a4432800" x="362.565718" y="579.595016" style="fill: #333333; stroke: #333333; stroke-width: 0.8"/>
      </g>
     </g>
     <g id="text_2">
      <!-- 2 -->
      <g style="fill: #333333" transform="translate(358.396187 599.805953) scale(0.15 -0.15)">
       <defs>
        <path id="HelveticaNeue-32" d="M 282 2931 
L 826 2931 
Q 819 3136 867 3337 
Q 915 3539 1024 3699 
Q 1133 3859 1302 3958 
Q 1472 4058 1709 4058 
Q 1888 4058 2048 4000 
Q 2208 3942 2326 3833 
Q 2445 3725 2515 3574 
Q 2586 3424 2586 3238 
Q 2586 3002 2512 2822 
Q 2438 2643 2294 2489 
Q 2150 2336 1932 2185 
Q 1715 2035 1427 1856 
Q 1190 1715 972 1555 
Q 755 1395 582 1184 
Q 410 973 298 688 
Q 186 403 154 0 
L 3117 0 
L 3117 480 
L 787 480 
Q 826 691 950 854 
Q 1075 1018 1251 1158 
Q 1427 1299 1638 1424 
Q 1850 1549 2061 1677 
Q 2272 1811 2470 1958 
Q 2669 2106 2822 2288 
Q 2976 2470 3069 2700 
Q 3162 2931 3162 3232 
Q 3162 3552 3050 3795 
Q 2938 4038 2746 4201 
Q 2554 4365 2294 4451 
Q 2035 4538 1741 4538 
Q 1382 4538 1100 4416 
Q 819 4294 630 4080 
Q 442 3866 352 3571 
Q 262 3277 282 2931 
z
" transform="scale(0.015625)"/>
       </defs>
       <use xlink:href="#HelveticaNeue-32"/>
      </g>
     </g>
    </g>
    <g id="xtick_3">
     <g id="line2d_3">
      <g>
       <use xlink:href="#mb5a4432800" x="459.846592" y="579.595016" style="fill: #333333; stroke: #333333; stroke-width: 0.8"/>
      </g>
     </g>
     <g id="text_3">
      <!-- 4 -->
      <g style="fill: #333333" transform="translate(455.677061 599.805953) scale(0.15 -0.15)">
       <defs>
        <path id="HelveticaNeue-34" d="M 2170 1542 
L 646 1542 
L 2157 3763 
L 2170 3763 
L 2170 1542 
z
M 2682 1542 
L 2682 4538 
L 2246 4538 
L 179 1587 
L 179 1062 
L 2170 1062 
L 2170 0 
L 2682 0 
L 2682 1062 
L 3296 1062 
L 3296 1542 
L 2682 1542 
z
" transform="scale(0.015625)"/>
       </defs>
       <use xlink:href="#HelveticaNeue-34"/>
      </g>
     </g>
    </g>
    <g id="xtick_4">
     <g id="line2d_4">
      <g>
       <use xlink:href="#mb5a4432800" x="557.127467" y="579.595016" style="fill: #333333; stroke: #333333; stroke-width: 0.8"/>
      </g>
     </g>
     <g id="text_4">
      <!-- 6 -->
      <g style="fill: #333333" transform="translate(552.957935 599.805953) scale(0.15 -0.15)">
       <defs>
        <path id="HelveticaNeue-36" d="M 2650 3379 
L 3194 3379 
Q 3142 3942 2809 4240 
Q 2477 4538 1914 4538 
Q 1427 4538 1107 4333 
Q 787 4128 595 3789 
Q 403 3450 323 3011 
Q 243 2573 243 2106 
Q 243 1747 297 1363 
Q 352 979 518 659 
Q 685 339 992 134 
Q 1299 -70 1805 -70 
Q 2234 -70 2525 74 
Q 2816 218 2992 438 
Q 3168 659 3245 928 
Q 3322 1197 3322 1446 
Q 3322 1760 3226 2029 
Q 3130 2298 2954 2496 
Q 2778 2694 2518 2806 
Q 2259 2918 1933 2918 
Q 1562 2918 1277 2777 
Q 992 2637 800 2323 
L 787 2336 
Q 794 2598 838 2899 
Q 883 3200 1001 3459 
Q 1120 3718 1331 3888 
Q 1542 4058 1888 4058 
Q 2214 4058 2412 3872 
Q 2611 3686 2650 3379 
z
M 1830 2438 
Q 2061 2438 2233 2355 
Q 2406 2272 2521 2134 
Q 2637 1997 2691 1808 
Q 2746 1619 2746 1408 
Q 2746 1210 2685 1027 
Q 2624 845 2509 704 
Q 2394 563 2224 483 
Q 2054 403 1830 403 
Q 1606 403 1430 483 
Q 1254 563 1136 697 
Q 1018 832 954 1017 
Q 890 1203 890 1414 
Q 890 1626 950 1814 
Q 1011 2003 1132 2140 
Q 1254 2278 1427 2358 
Q 1600 2438 1830 2438 
z
" transform="scale(0.015625)"/>
       </defs>
       <use xlink:href="#HelveticaNeue-36"/>
      </g>
     </g>
    </g>
    <g id="xtick_5">
     <g id="line2d_5">
      <g>
       <use xlink:href="#mb5a4432800" x="654.408341" y="579.595016" style="fill: #333333; stroke: #333333; stroke-width: 0.8"/>
      </g>
     </g>
     <g id="text_5">
      <!-- 8 -->
      <g style="fill: #333333" transform="translate(650.23881 599.805953) scale(0.15 -0.15)">
       <defs>
        <path id="HelveticaNeue-38" d="M 992 3360 
Q 992 3533 1056 3661 
Q 1120 3789 1225 3878 
Q 1331 3968 1478 4013 
Q 1626 4058 1786 4058 
Q 2118 4058 2332 3882 
Q 2547 3706 2547 3360 
Q 2547 3014 2336 2822 
Q 2125 2630 1798 2630 
Q 1632 2630 1485 2675 
Q 1338 2720 1229 2809 
Q 1120 2899 1056 3036 
Q 992 3174 992 3360 
z
M 416 3379 
Q 416 3072 589 2813 
Q 762 2554 1050 2438 
Q 666 2304 461 2006 
Q 256 1709 256 1306 
Q 256 960 374 701 
Q 493 442 701 269 
Q 909 96 1190 13 
Q 1472 -70 1798 -70 
Q 2112 -70 2387 19 
Q 2662 109 2864 285 
Q 3066 461 3184 717 
Q 3302 973 3302 1306 
Q 3302 1728 3104 2019 
Q 2906 2310 2496 2438 
Q 2784 2566 2953 2819 
Q 3123 3072 3123 3379 
Q 3123 3597 3046 3805 
Q 2970 4013 2806 4176 
Q 2643 4339 2380 4438 
Q 2118 4538 1747 4538 
Q 1485 4538 1245 4461 
Q 1005 4384 819 4237 
Q 634 4090 525 3875 
Q 416 3661 416 3379 
z
M 832 1280 
Q 832 1478 905 1638 
Q 979 1798 1110 1913 
Q 1242 2029 1418 2089 
Q 1594 2150 1792 2150 
Q 1984 2150 2153 2083 
Q 2323 2016 2451 1901 
Q 2579 1786 2652 1629 
Q 2726 1472 2726 1286 
Q 2726 1094 2659 934 
Q 2592 774 2467 656 
Q 2342 538 2172 470 
Q 2003 403 1798 403 
Q 1376 403 1104 636 
Q 832 870 832 1280 
z
" transform="scale(0.015625)"/>
       </defs>
       <use xlink:href="#HelveticaNeue-38"/>
      </g>
     </g>
    </g>
    <g id="xtick_6">
     <g id="line2d_6">
      <g>
       <use xlink:href="#mb5a4432800" x="751.689215" y="579.595016" style="fill: #333333; stroke: #333333; stroke-width: 0.8"/>
      </g>
     </g>
     <g id="text_6">
      <!-- 10 -->
      <g style="fill: #333333" transform="translate(743.350153 599.805953) scale(0.15 -0.15)">
       <defs>
        <path id="HelveticaNeue-31" d="M 2278 0 
L 2278 4538 
L 1862 4538 
Q 1818 4282 1696 4115 
Q 1574 3949 1398 3853 
Q 1222 3757 1004 3721 
Q 787 3686 557 3686 
L 557 3251 
L 1734 3251 
L 1734 0 
L 2278 0 
z
" transform="scale(0.015625)"/>
       </defs>
       <use xlink:href="#HelveticaNeue-31"/>
       <use xlink:href="#HelveticaNeue-30" transform="translate(55.599991 0)"/>
      </g>
     </g>
    </g>
    <g id="xtick_7">
     <g id="line2d_7">
      <g>
       <use xlink:href="#mb5a4432800" x="848.97009" y="579.595016" style="fill: #333333; stroke: #333333; stroke-width: 0.8"/>
      </g>
     </g>
     <g id="text_7">
      <!-- 12 -->
      <g style="fill: #333333" transform="translate(840.631027 599.805953) scale(0.15 -0.15)">
       <use xlink:href="#HelveticaNeue-31"/>
       <use xlink:href="#HelveticaNeue-32" transform="translate(55.599991 0)"/>
      </g>
     </g>
    </g>
    <g id="xtick_8">
     <g id="line2d_8">
      <g>
       <use xlink:href="#mb5a4432800" x="946.250964" y="579.595016" style="fill: #333333; stroke: #333333; stroke-width: 0.8"/>
      </g>
     </g>
     <g id="text_8">
      <!-- 14 -->
      <g style="fill: #333333" transform="translate(937.911901 599.805953) scale(0.15 -0.15)">
       <use xlink:href="#HelveticaNeue-31"/>
       <use xlink:href="#HelveticaNeue-34" transform="translate(55.599991 0)"/>
      </g>
     </g>
    </g>
    <g id="xtick_9">
     <g id="line2d_9">
      <g>
       <use xlink:href="#mb5a4432800" x="1043.531838" y="579.595016" style="fill: #333333; stroke: #333333; stroke-width: 0.8"/>
      </g>
     </g>
     <g id="text_9">
      <!-- 16 -->
      <g style="fill: #333333" transform="translate(1035.192776 599.805953) scale(0.15 -0.15)">
       <use xlink:href="#HelveticaNeue-31"/>
       <use xlink:href="#HelveticaNeue-36" transform="translate(55.599991 0)"/>
      </g>
     </g>
    </g>
    <g id="text_10">
     <!-- Relative difficulty gap (percentage points below easiest stem) — easiest stem pooled keyed @ 97.3% -->
     <g style="fill: #333333" transform="translate(355.253203 623.725484) scale(0.15 -0.15)">
      <defs>
       <path id="HelveticaNeue-52" d="M 499 4570 
L 499 0 
L 1107 0 
L 1107 1952 
L 2592 1952 
Q 2816 1952 2950 1885 
Q 3085 1818 3168 1706 
Q 3251 1594 3289 1443 
Q 3328 1293 3354 1126 
Q 3386 960 3392 787 
Q 3398 614 3404 464 
Q 3411 314 3433 192 
Q 3456 70 3520 0 
L 4198 0 
Q 4102 115 4054 265 
Q 4006 416 3980 582 
Q 3955 749 3948 921 
Q 3942 1094 3930 1261 
Q 3910 1427 3875 1580 
Q 3840 1734 3766 1859 
Q 3693 1984 3568 2073 
Q 3443 2163 3245 2202 
L 3245 2214 
Q 3661 2330 3849 2643 
Q 4038 2957 4038 3373 
Q 4038 3930 3670 4250 
Q 3302 4570 2650 4570 
L 499 4570 
z
M 2374 2464 
L 1107 2464 
L 1107 4058 
L 2618 4058 
Q 3046 4058 3238 3840 
Q 3430 3622 3430 3277 
Q 3430 3027 3344 2870 
Q 3258 2714 3114 2621 
Q 2970 2528 2778 2496 
Q 2586 2464 2374 2464 
z
" transform="scale(0.015625)"/>
       <path id="HelveticaNeue-65" d="M 2707 1971 
L 806 1971 
Q 819 2163 889 2332 
Q 960 2502 1081 2630 
Q 1203 2758 1372 2832 
Q 1542 2906 1754 2906 
Q 1958 2906 2128 2832 
Q 2298 2758 2422 2633 
Q 2547 2509 2620 2336 
Q 2694 2163 2707 1971 
z
M 3232 1050 
L 2694 1050 
Q 2624 723 2403 563 
Q 2182 403 1837 403 
Q 1568 403 1369 492 
Q 1171 582 1043 732 
Q 915 883 857 1078 
Q 800 1274 806 1491 
L 3283 1491 
Q 3296 1792 3229 2125 
Q 3162 2458 2986 2739 
Q 2810 3021 2518 3203 
Q 2227 3386 1786 3386 
Q 1446 3386 1161 3258 
Q 877 3130 669 2899 
Q 461 2669 345 2355 
Q 230 2042 230 1664 
Q 243 1286 342 966 
Q 442 646 640 416 
Q 838 186 1129 58 
Q 1421 -70 1818 -70 
Q 2381 -70 2752 211 
Q 3123 493 3232 1050 
z
" transform="scale(0.015625)"/>
       <path id="HelveticaNeue-6c" d="M 442 4570 
L 442 0 
L 986 0 
L 986 4570 
L 442 4570 
z
" transform="scale(0.015625)"/>
       <path id="HelveticaNeue-61" d="M 3341 13 
Q 3200 -70 2950 -70 
Q 2739 -70 2614 48 
Q 2490 166 2490 435 
Q 2266 166 1968 48 
Q 1670 -70 1325 -70 
Q 1101 -70 899 -19 
Q 698 32 550 141 
Q 403 250 316 426 
Q 230 602 230 851 
Q 230 1133 326 1312 
Q 422 1491 579 1603 
Q 736 1715 937 1772 
Q 1139 1830 1350 1869 
Q 1574 1914 1776 1936 
Q 1978 1958 2131 2000 
Q 2285 2042 2374 2122 
Q 2464 2202 2464 2355 
Q 2464 2534 2397 2643 
Q 2330 2752 2224 2809 
Q 2118 2867 1987 2886 
Q 1856 2906 1728 2906 
Q 1382 2906 1152 2774 
Q 922 2643 902 2278 
L 358 2278 
Q 371 2586 486 2797 
Q 602 3008 794 3139 
Q 986 3270 1232 3328 
Q 1478 3386 1760 3386 
Q 1984 3386 2205 3354 
Q 2426 3322 2605 3222 
Q 2784 3123 2893 2944 
Q 3002 2765 3002 2477 
L 3002 774 
Q 3002 582 3024 492 
Q 3046 403 3174 403 
Q 3245 403 3341 435 
L 3341 13 
z
M 2458 1709 
Q 2355 1632 2188 1597 
Q 2022 1562 1840 1539 
Q 1658 1517 1472 1488 
Q 1286 1459 1139 1395 
Q 992 1331 899 1212 
Q 806 1094 806 890 
Q 806 755 860 662 
Q 915 570 1001 512 
Q 1088 454 1203 428 
Q 1318 403 1446 403 
Q 1715 403 1907 476 
Q 2099 550 2220 662 
Q 2342 774 2400 905 
Q 2458 1037 2458 1152 
L 2458 1709 
z
" transform="scale(0.015625)"/>
       <path id="HelveticaNeue-74" d="M 1165 3309 
L 1165 4301 
L 621 4301 
L 621 3309 
L 58 3309 
L 58 2829 
L 621 2829 
L 621 723 
Q 621 493 665 352 
Q 710 211 803 134 
Q 896 58 1046 29 
Q 1197 0 1408 0 
L 1824 0 
L 1824 480 
L 1574 480 
Q 1446 480 1366 489 
Q 1286 499 1241 531 
Q 1197 563 1181 620 
Q 1165 678 1165 774 
L 1165 2829 
L 1824 2829 
L 1824 3309 
L 1165 3309 
z
" transform="scale(0.015625)"/>
       <path id="HelveticaNeue-69" d="M 986 3904 
L 986 4570 
L 442 4570 
L 442 3904 
L 986 3904 
z
M 442 3309 
L 442 0 
L 986 0 
L 986 3309 
L 442 3309 
z
" transform="scale(0.015625)"/>
       <path id="HelveticaNeue-76" d="M 1901 0 
L 3110 3309 
L 2541 3309 
L 1638 550 
L 1626 550 
L 698 3309 
L 90 3309 
L 1318 0 
L 1901 0 
z
" transform="scale(0.015625)"/>
       <path id="HelveticaNeue-20" transform="scale(0.015625)"/>
       <path id="HelveticaNeue-64" d="M 806 1626 
Q 806 1869 857 2099 
Q 909 2330 1024 2509 
Q 1139 2688 1331 2797 
Q 1523 2906 1798 2906 
Q 2080 2906 2278 2800 
Q 2477 2694 2601 2521 
Q 2726 2349 2784 2121 
Q 2842 1894 2842 1651 
Q 2842 1421 2787 1197 
Q 2733 973 2611 797 
Q 2490 621 2298 512 
Q 2106 403 1830 403 
Q 1568 403 1373 505 
Q 1178 608 1053 781 
Q 928 954 867 1174 
Q 806 1395 806 1626 
z
M 3366 0 
L 3366 4570 
L 2822 4570 
L 2822 2867 
L 2810 2867 
Q 2720 3014 2589 3113 
Q 2458 3213 2310 3273 
Q 2163 3334 2016 3360 
Q 1869 3386 1741 3386 
Q 1363 3386 1078 3248 
Q 794 3110 605 2876 
Q 416 2643 323 2329 
Q 230 2016 230 1664 
Q 230 1312 326 998 
Q 422 685 611 448 
Q 800 211 1085 70 
Q 1370 -70 1754 -70 
Q 2099 -70 2387 51 
Q 2675 173 2810 448 
L 2822 448 
L 2822 0 
L 3366 0 
z
" transform="scale(0.015625)"/>
       <path id="HelveticaNeue-66" d="M 634 2829 
L 634 0 
L 1178 0 
L 1178 2829 
L 1818 2829 
L 1818 3309 
L 1178 3309 
L 1178 3770 
Q 1178 3987 1286 4064 
Q 1395 4141 1594 4141 
Q 1664 4141 1747 4131 
Q 1830 4122 1901 4096 
L 1901 4570 
Q 1824 4595 1725 4608 
Q 1626 4621 1549 4621 
Q 1101 4621 867 4413 
Q 634 4205 634 3802 
L 634 3309 
L 77 3309 
L 77 2829 
L 634 2829 
z
" transform="scale(0.015625)"/>
       <path id="HelveticaNeue-63" d="M 2656 2246 
L 3219 2246 
Q 3187 2541 3065 2755 
Q 2944 2970 2755 3110 
Q 2566 3251 2320 3318 
Q 2074 3386 1792 3386 
Q 1402 3386 1107 3248 
Q 813 3110 617 2870 
Q 422 2630 326 2307 
Q 230 1984 230 1613 
Q 230 1242 329 931 
Q 429 621 624 397 
Q 819 173 1110 51 
Q 1402 -70 1779 -70 
Q 2413 -70 2781 262 
Q 3149 595 3238 1210 
L 2682 1210 
Q 2630 826 2403 614 
Q 2176 403 1773 403 
Q 1517 403 1331 505 
Q 1146 608 1030 777 
Q 915 947 860 1164 
Q 806 1382 806 1613 
Q 806 1862 857 2096 
Q 909 2330 1027 2509 
Q 1146 2688 1344 2797 
Q 1542 2906 1837 2906 
Q 2182 2906 2387 2733 
Q 2592 2560 2656 2246 
z
" transform="scale(0.015625)"/>
       <path id="HelveticaNeue-75" d="M 3149 0 
L 3149 3309 
L 2605 3309 
L 2605 1440 
Q 2605 1216 2544 1027 
Q 2483 838 2361 697 
Q 2240 557 2057 480 
Q 1875 403 1626 403 
Q 1312 403 1133 582 
Q 954 762 954 1069 
L 954 3309 
L 410 3309 
L 410 1133 
Q 410 864 464 643 
Q 518 422 652 262 
Q 787 102 1004 16 
Q 1222 -70 1549 -70 
Q 1914 -70 2182 74 
Q 2451 218 2624 525 
L 2637 525 
L 2637 0 
L 3149 0 
z
" transform="scale(0.015625)"/>
       <path id="HelveticaNeue-79" d="M 1709 -442 
Q 1613 -685 1520 -851 
Q 1427 -1018 1315 -1123 
Q 1203 -1229 1065 -1277 
Q 928 -1325 749 -1325 
Q 653 -1325 557 -1312 
Q 461 -1299 371 -1267 
L 371 -768 
Q 442 -800 534 -822 
Q 627 -845 691 -845 
Q 858 -845 970 -765 
Q 1082 -685 1139 -538 
L 1363 19 
L 51 3309 
L 666 3309 
L 1632 602 
L 1645 602 
L 2573 3309 
L 3149 3309 
L 1709 -442 
z
" transform="scale(0.015625)"/>
       <path id="HelveticaNeue-67" d="M 3264 282 
L 3264 3309 
L 2752 3309 
L 2752 2835 
L 2746 2835 
Q 2598 3110 2336 3248 
Q 2074 3386 1760 3386 
Q 1331 3386 1036 3222 
Q 742 3059 563 2806 
Q 384 2554 307 2243 
Q 230 1933 230 1638 
Q 230 1299 323 995 
Q 416 691 601 464 
Q 787 237 1062 102 
Q 1338 -32 1709 -32 
Q 2029 -32 2313 112 
Q 2598 256 2739 563 
L 2752 563 
L 2752 346 
Q 2752 70 2697 -160 
Q 2643 -390 2521 -553 
Q 2400 -717 2214 -809 
Q 2029 -902 1760 -902 
Q 1626 -902 1478 -873 
Q 1331 -845 1206 -781 
Q 1082 -717 995 -614 
Q 909 -512 902 -365 
L 358 -365 
Q 371 -634 499 -819 
Q 627 -1005 822 -1120 
Q 1018 -1235 1258 -1286 
Q 1498 -1338 1728 -1338 
Q 2522 -1338 2893 -934 
Q 3264 -531 3264 282 
z
M 1741 442 
Q 1472 442 1293 554 
Q 1114 666 1005 848 
Q 896 1030 851 1254 
Q 806 1478 806 1702 
Q 806 1939 860 2156 
Q 915 2374 1033 2540 
Q 1152 2707 1337 2806 
Q 1523 2906 1786 2906 
Q 2042 2906 2221 2803 
Q 2400 2701 2512 2531 
Q 2624 2362 2675 2150 
Q 2726 1939 2726 1722 
Q 2726 1491 2672 1260 
Q 2618 1030 2502 848 
Q 2387 666 2198 554 
Q 2010 442 1741 442 
z
" transform="scale(0.015625)"/>
       <path id="HelveticaNeue-70" d="M 429 3309 
L 429 -1261 
L 973 -1261 
L 973 442 
L 986 442 
Q 1075 294 1206 195 
Q 1338 96 1485 38 
Q 1632 -19 1782 -44 
Q 1933 -70 2054 -70 
Q 2432 -70 2717 64 
Q 3002 198 3190 432 
Q 3379 666 3472 979 
Q 3565 1293 3565 1645 
Q 3565 1997 3469 2310 
Q 3373 2624 3184 2864 
Q 2995 3104 2710 3245 
Q 2426 3386 2042 3386 
Q 1696 3386 1408 3261 
Q 1120 3136 986 2861 
L 973 2861 
L 973 3309 
L 429 3309 
z
M 2989 1683 
Q 2989 1440 2937 1209 
Q 2886 979 2771 800 
Q 2656 621 2467 512 
Q 2278 403 1997 403 
Q 1715 403 1516 508 
Q 1318 614 1193 787 
Q 1069 960 1011 1187 
Q 954 1414 954 1658 
Q 954 1888 1008 2112 
Q 1062 2336 1184 2512 
Q 1306 2688 1498 2797 
Q 1690 2906 1965 2906 
Q 2227 2906 2422 2803 
Q 2618 2701 2742 2528 
Q 2867 2355 2928 2134 
Q 2989 1914 2989 1683 
z
" transform="scale(0.015625)"/>
       <path id="HelveticaNeue-28" d="M 1306 -1261 
L 1722 -1261 
Q 1267 -525 1072 198 
Q 877 922 877 1728 
Q 877 2515 1069 3232 
Q 1261 3949 1722 4678 
L 1306 4678 
Q 806 4019 553 3251 
Q 301 2483 301 1728 
Q 301 1306 371 922 
Q 442 538 573 173 
Q 704 -192 889 -547 
Q 1075 -902 1306 -1261 
z
" transform="scale(0.015625)"/>
       <path id="HelveticaNeue-72" d="M 390 3309 
L 390 0 
L 934 0 
L 934 1472 
Q 934 1792 998 2038 
Q 1062 2285 1203 2457 
Q 1344 2630 1574 2720 
Q 1805 2810 2131 2810 
L 2131 3386 
Q 1690 3398 1402 3206 
Q 1114 3014 915 2611 
L 902 2611 
L 902 3309 
L 390 3309 
z
" transform="scale(0.015625)"/>
       <path id="HelveticaNeue-6e" d="M 410 3309 
L 410 0 
L 954 0 
L 954 1869 
Q 954 2093 1014 2281 
Q 1075 2470 1196 2611 
Q 1318 2752 1500 2829 
Q 1683 2906 1933 2906 
Q 2246 2906 2425 2726 
Q 2605 2547 2605 2240 
L 2605 0 
L 3149 0 
L 3149 2176 
Q 3149 2445 3094 2665 
Q 3040 2886 2905 3046 
Q 2771 3206 2553 3296 
Q 2336 3386 2010 3386 
Q 1274 3386 934 2784 
L 922 2784 
L 922 3309 
L 410 3309 
z
" transform="scale(0.015625)"/>
       <path id="HelveticaNeue-6f" d="M 806 1651 
Q 806 1952 886 2185 
Q 966 2419 1107 2579 
Q 1248 2739 1437 2822 
Q 1626 2906 1837 2906 
Q 2048 2906 2237 2822 
Q 2426 2739 2566 2579 
Q 2707 2419 2787 2185 
Q 2867 1952 2867 1651 
Q 2867 1350 2787 1116 
Q 2707 883 2566 726 
Q 2426 570 2237 486 
Q 2048 403 1837 403 
Q 1626 403 1437 486 
Q 1248 570 1107 726 
Q 966 883 886 1116 
Q 806 1350 806 1651 
z
M 230 1651 
Q 230 1286 332 972 
Q 435 659 640 425 
Q 845 192 1145 61 
Q 1446 -70 1837 -70 
Q 2234 -70 2531 61 
Q 2829 192 3033 425 
Q 3238 659 3340 972 
Q 3443 1286 3443 1651 
Q 3443 2016 3340 2333 
Q 3238 2650 3033 2883 
Q 2829 3117 2531 3251 
Q 2234 3386 1837 3386 
Q 1446 3386 1145 3251 
Q 845 3117 640 2883 
Q 435 2650 332 2333 
Q 230 2016 230 1651 
z
" transform="scale(0.015625)"/>
       <path id="HelveticaNeue-73" d="M 742 1043 
L 198 1043 
Q 211 736 326 521 
Q 442 307 634 176 
Q 826 45 1075 -12 
Q 1325 -70 1600 -70 
Q 1850 -70 2102 -22 
Q 2355 26 2556 147 
Q 2758 269 2883 467 
Q 3008 666 3008 966 
Q 3008 1203 2915 1363 
Q 2822 1523 2672 1628 
Q 2522 1734 2326 1798 
Q 2131 1862 1926 1907 
Q 1734 1952 1542 1993 
Q 1350 2035 1196 2096 
Q 1043 2157 944 2249 
Q 845 2342 845 2483 
Q 845 2611 909 2691 
Q 973 2771 1075 2819 
Q 1178 2867 1302 2886 
Q 1427 2906 1549 2906 
Q 1683 2906 1814 2877 
Q 1946 2848 2054 2784 
Q 2163 2720 2233 2614 
Q 2304 2509 2317 2349 
L 2861 2349 
Q 2842 2650 2733 2851 
Q 2624 3053 2441 3171 
Q 2259 3290 2022 3338 
Q 1786 3386 1504 3386 
Q 1286 3386 1065 3331 
Q 845 3277 669 3165 
Q 493 3053 381 2873 
Q 269 2694 269 2445 
Q 269 2125 429 1945 
Q 589 1766 829 1667 
Q 1069 1568 1350 1513 
Q 1632 1459 1872 1392 
Q 2112 1325 2272 1216 
Q 2432 1107 2432 896 
Q 2432 742 2355 643 
Q 2278 544 2160 493 
Q 2042 442 1901 422 
Q 1760 403 1632 403 
Q 1466 403 1309 435 
Q 1152 467 1027 540 
Q 902 614 825 739 
Q 749 864 742 1043 
z
" transform="scale(0.015625)"/>
       <path id="HelveticaNeue-62" d="M 429 4570 
L 429 0 
L 973 0 
L 973 442 
L 986 442 
Q 1075 294 1206 195 
Q 1338 96 1485 38 
Q 1632 -19 1782 -44 
Q 1933 -70 2054 -70 
Q 2432 -70 2717 64 
Q 3002 198 3190 432 
Q 3379 666 3472 979 
Q 3565 1293 3565 1645 
Q 3565 1997 3469 2310 
Q 3373 2624 3184 2864 
Q 2995 3104 2710 3245 
Q 2426 3386 2042 3386 
Q 1696 3386 1408 3261 
Q 1120 3136 986 2861 
L 973 2861 
L 973 4570 
L 429 4570 
z
M 2989 1683 
Q 2989 1440 2937 1209 
Q 2886 979 2771 800 
Q 2656 621 2467 512 
Q 2278 403 1997 403 
Q 1715 403 1516 508 
Q 1318 614 1193 787 
Q 1069 960 1011 1187 
Q 954 1414 954 1658 
Q 954 1888 1008 2112 
Q 1062 2336 1184 2512 
Q 1306 2688 1498 2797 
Q 1690 2906 1965 2906 
Q 2227 2906 2422 2803 
Q 2618 2701 2742 2528 
Q 2867 2355 2928 2134 
Q 2989 1914 2989 1683 
z
" transform="scale(0.015625)"/>
       <path id="HelveticaNeue-77" d="M 3686 0 
L 4742 3309 
L 4179 3309 
L 3437 602 
L 3424 602 
L 2733 3309 
L 2138 3309 
L 1472 602 
L 1459 602 
L 710 3309 
L 109 3309 
L 1171 0 
L 1760 0 
L 2426 2630 
L 2438 2630 
L 3110 0 
L 3686 0 
z
" transform="scale(0.015625)"/>
       <path id="HelveticaNeue-6d" d="M 410 3309 
L 410 0 
L 954 0 
L 954 2061 
Q 954 2157 1002 2301 
Q 1050 2445 1155 2579 
Q 1261 2714 1430 2810 
Q 1600 2906 1837 2906 
Q 2022 2906 2140 2851 
Q 2259 2797 2329 2697 
Q 2400 2598 2429 2464 
Q 2458 2330 2458 2170 
L 2458 0 
L 3002 0 
L 3002 2061 
Q 3002 2445 3232 2675 
Q 3462 2906 3866 2906 
Q 4064 2906 4189 2848 
Q 4314 2790 4384 2691 
Q 4454 2592 4480 2457 
Q 4506 2323 4506 2170 
L 4506 0 
L 5050 0 
L 5050 2426 
Q 5050 2682 4970 2864 
Q 4890 3046 4746 3161 
Q 4602 3277 4400 3331 
Q 4198 3386 3949 3386 
Q 3622 3386 3350 3238 
Q 3078 3091 2912 2822 
Q 2810 3130 2560 3258 
Q 2310 3386 2003 3386 
Q 1306 3386 934 2822 
L 922 2822 
L 922 3309 
L 410 3309 
z
" transform="scale(0.015625)"/>
       <path id="HelveticaNeue-29" d="M -58 -1261 
L 352 -1261 
Q 851 -602 1104 163 
Q 1357 928 1357 1683 
Q 1357 2106 1286 2490 
Q 1216 2874 1085 3242 
Q 954 3610 768 3965 
Q 582 4320 352 4678 
L -58 4678 
Q 390 3942 585 3216 
Q 781 2490 781 1683 
Q 781 902 589 182 
Q 397 -538 -58 -1261 
z
" transform="scale(0.015625)"/>
       <path id="HelveticaNeue-2014" d="M 832 2035 
L 832 1523 
L 5568 1523 
L 5568 2035 
L 832 2035 
z
" transform="scale(0.015625)"/>
       <path id="HelveticaNeue-6b" d="M 442 4570 
L 442 0 
L 986 0 
L 986 1254 
L 1498 1728 
L 2630 0 
L 3322 0 
L 1914 2106 
L 3226 3309 
L 2496 3309 
L 986 1862 
L 986 4570 
L 442 4570 
z
" transform="scale(0.015625)"/>
       <path id="HelveticaNeue-40" d="M 3418 1728 
L 3955 3546 
L 3552 3546 
L 3405 3142 
Q 3296 3430 3104 3548 
Q 2912 3667 2688 3667 
Q 2349 3667 2070 3507 
Q 1792 3347 1597 3091 
Q 1402 2835 1293 2508 
Q 1184 2182 1184 1850 
Q 1184 1638 1251 1452 
Q 1318 1267 1436 1132 
Q 1555 998 1724 918 
Q 1894 838 2099 838 
Q 2336 838 2541 969 
Q 2746 1101 2893 1267 
L 2912 1267 
Q 2925 1056 3040 953 
Q 3155 851 3322 851 
Q 3546 851 3808 985 
Q 4070 1120 4294 1363 
Q 4518 1606 4668 1948 
Q 4819 2291 4819 2707 
Q 4819 3142 4646 3504 
Q 4474 3866 4176 4125 
Q 3878 4384 3481 4531 
Q 3085 4678 2643 4678 
Q 2157 4678 1725 4492 
Q 1293 4307 969 3984 
Q 646 3661 457 3229 
Q 269 2797 269 2304 
Q 269 1792 454 1353 
Q 640 915 963 592 
Q 1286 269 1724 83 
Q 2163 -102 2669 -102 
Q 2976 -102 3270 -28 
Q 3565 45 3824 189 
Q 4083 333 4300 541 
Q 4518 749 4672 1018 
L 4269 1018 
Q 3994 666 3568 454 
Q 3142 243 2682 243 
Q 2278 243 1920 400 
Q 1562 557 1290 829 
Q 1018 1101 861 1472 
Q 704 1843 704 2272 
Q 704 2694 854 3065 
Q 1005 3437 1267 3718 
Q 1530 4000 1885 4163 
Q 2240 4326 2650 4326 
Q 2989 4326 3299 4211 
Q 3610 4096 3853 3881 
Q 4096 3667 4240 3360 
Q 4384 3053 4384 2675 
Q 4384 2419 4301 2156 
Q 4218 1894 4090 1683 
Q 3962 1472 3805 1337 
Q 3648 1203 3501 1203 
Q 3347 1203 3347 1402 
Q 3347 1472 3369 1558 
Q 3392 1645 3418 1728 
z
M 2688 3232 
Q 2790 3232 2883 3181 
Q 2976 3130 3049 3050 
Q 3123 2970 3164 2861 
Q 3206 2752 3206 2637 
Q 3206 2438 3129 2201 
Q 3053 1965 2918 1757 
Q 2784 1549 2605 1411 
Q 2426 1274 2214 1274 
Q 1971 1274 1817 1450 
Q 1664 1626 1664 1894 
Q 1664 2106 1741 2339 
Q 1818 2573 1952 2771 
Q 2086 2970 2275 3101 
Q 2464 3232 2688 3232 
z
" transform="scale(0.015625)"/>
       <path id="HelveticaNeue-39" d="M 858 1094 
L 314 1094 
Q 365 506 742 218 
Q 1120 -70 1690 -70 
Q 2515 -70 2889 560 
Q 3264 1190 3264 2368 
Q 3264 3014 3139 3433 
Q 3014 3853 2803 4096 
Q 2592 4339 2310 4438 
Q 2029 4538 1709 4538 
Q 1382 4538 1107 4429 
Q 832 4320 633 4125 
Q 435 3930 326 3658 
Q 218 3386 218 3059 
Q 218 2726 310 2444 
Q 403 2163 585 1964 
Q 768 1766 1037 1654 
Q 1306 1542 1651 1542 
Q 1984 1542 2265 1712 
Q 2547 1882 2701 2170 
L 2714 2157 
Q 2688 1267 2438 835 
Q 2189 403 1690 403 
Q 1363 403 1126 582 
Q 890 762 858 1094 
z
M 2618 3021 
Q 2618 2822 2554 2640 
Q 2490 2458 2368 2320 
Q 2246 2182 2073 2102 
Q 1901 2022 1690 2022 
Q 1491 2022 1328 2102 
Q 1165 2182 1046 2316 
Q 928 2451 861 2624 
Q 794 2797 794 2982 
Q 794 3194 842 3386 
Q 890 3578 995 3728 
Q 1101 3878 1270 3968 
Q 1440 4058 1683 4058 
Q 1914 4058 2086 3974 
Q 2259 3891 2377 3747 
Q 2496 3603 2557 3417 
Q 2618 3232 2618 3021 
z
" transform="scale(0.015625)"/>
       <path id="HelveticaNeue-37" d="M 3258 3994 
L 3258 4461 
L 320 4461 
L 320 3949 
L 2701 3949 
Q 2342 3571 2032 3123 
Q 1722 2675 1485 2172 
Q 1248 1670 1097 1123 
Q 947 576 909 0 
L 1517 0 
Q 1549 531 1696 1094 
Q 1843 1658 2076 2189 
Q 2310 2720 2611 3187 
Q 2912 3654 3258 3994 
z
" transform="scale(0.015625)"/>
       <path id="HelveticaNeue-2e" d="M 531 710 
L 531 0 
L 1242 0 
L 1242 710 
L 531 710 
z
" transform="scale(0.015625)"/>
       <path id="HelveticaNeue-33" d="M 1395 2592 
L 1395 2131 
Q 1549 2150 1722 2150 
Q 1926 2150 2102 2096 
Q 2278 2042 2406 1930 
Q 2534 1818 2611 1654 
Q 2688 1491 2688 1280 
Q 2688 1075 2608 912 
Q 2528 749 2393 637 
Q 2259 525 2080 464 
Q 1901 403 1702 403 
Q 1235 403 992 681 
Q 749 960 736 1402 
L 192 1402 
Q 186 1050 291 774 
Q 397 499 595 310 
Q 794 122 1075 26 
Q 1357 -70 1702 -70 
Q 2022 -70 2307 16 
Q 2592 102 2803 275 
Q 3014 448 3139 707 
Q 3264 966 3264 1306 
Q 3264 1715 3062 2016 
Q 2861 2317 2445 2406 
L 2445 2419 
Q 2714 2541 2893 2777 
Q 3072 3014 3072 3322 
Q 3072 3635 2966 3865 
Q 2861 4096 2675 4243 
Q 2490 4390 2237 4464 
Q 1984 4538 1690 4538 
Q 1350 4538 1091 4429 
Q 832 4320 659 4128 
Q 486 3936 393 3667 
Q 301 3398 288 3072 
L 832 3072 
Q 832 3270 883 3449 
Q 934 3629 1040 3763 
Q 1146 3898 1309 3978 
Q 1472 4058 1690 4058 
Q 2035 4058 2265 3875 
Q 2496 3693 2496 3328 
Q 2496 3149 2425 3008 
Q 2355 2867 2236 2774 
Q 2118 2682 1961 2634 
Q 1805 2586 1632 2586 
L 1517 2586 
Q 1485 2586 1453 2586 
Q 1427 2586 1395 2592 
z
" transform="scale(0.015625)"/>
       <path id="HelveticaNeue-25" d="M 1069 3251 
Q 1069 3398 1088 3561 
Q 1107 3725 1168 3862 
Q 1229 4000 1337 4093 
Q 1446 4186 1626 4186 
Q 1811 4186 1916 4093 
Q 2022 4000 2080 3862 
Q 2138 3725 2154 3561 
Q 2170 3398 2170 3258 
Q 2170 3110 2150 2944 
Q 2131 2778 2070 2640 
Q 2010 2502 1901 2412 
Q 1792 2323 1606 2323 
Q 1427 2323 1321 2416 
Q 1216 2509 1158 2646 
Q 1101 2784 1085 2947 
Q 1069 3110 1069 3251 
z
M 589 3238 
Q 589 2976 643 2745 
Q 698 2515 819 2342 
Q 941 2170 1139 2070 
Q 1338 1971 1626 1971 
Q 1907 1971 2099 2080 
Q 2291 2189 2416 2365 
Q 2541 2541 2595 2774 
Q 2650 3008 2650 3258 
Q 2650 3520 2602 3753 
Q 2554 3987 2435 4160 
Q 2317 4333 2121 4435 
Q 1926 4538 1626 4538 
Q 1331 4538 1132 4432 
Q 934 4326 812 4147 
Q 691 3968 640 3734 
Q 589 3501 589 3238 
z
M 4230 1203 
Q 4230 1350 4249 1513 
Q 4269 1677 4329 1814 
Q 4390 1952 4499 2045 
Q 4608 2138 4787 2138 
Q 4973 2138 5078 2045 
Q 5184 1952 5241 1814 
Q 5299 1677 5315 1513 
Q 5331 1350 5331 1210 
Q 5331 1062 5312 896 
Q 5293 730 5232 592 
Q 5171 454 5062 364 
Q 4954 275 4768 275 
Q 4589 275 4483 368 
Q 4378 461 4320 598 
Q 4262 736 4246 899 
Q 4230 1062 4230 1203 
z
M 3750 1190 
Q 3750 928 3804 697 
Q 3859 467 3980 297 
Q 4102 128 4300 29 
Q 4499 -70 4787 -70 
Q 5069 -70 5261 35 
Q 5453 141 5577 317 
Q 5702 493 5756 726 
Q 5811 960 5811 1210 
Q 5811 1472 5763 1705 
Q 5715 1939 5596 2112 
Q 5478 2285 5283 2387 
Q 5088 2490 4787 2490 
Q 4493 2490 4294 2384 
Q 4096 2278 3974 2099 
Q 3853 1920 3801 1686 
Q 3750 1453 3750 1190 
z
M 4646 4621 
L 1203 -134 
L 1754 -134 
L 5190 4621 
L 4646 4621 
z
" transform="scale(0.015625)"/>
      </defs>
      <use xlink:href="#HelveticaNeue-52"/>
      <use xlink:href="#HelveticaNeue-65" transform="translate(68.499985 0)"/>
      <use xlink:href="#HelveticaNeue-6c" transform="translate(122.199982 0)"/>
      <use xlink:href="#HelveticaNeue-61" transform="translate(144.399979 0)"/>
      <use xlink:href="#HelveticaNeue-74" transform="translate(198.099976 0)"/>
      <use xlink:href="#HelveticaNeue-69" transform="translate(229.59996 0)"/>
      <use xlink:href="#HelveticaNeue-76" transform="translate(251.799957 0)"/>
      <use xlink:href="#HelveticaNeue-65" transform="translate(301.799942 0)"/>
      <use xlink:href="#HelveticaNeue-20" transform="translate(355.499939 0)"/>
      <use xlink:href="#HelveticaNeue-64" transform="translate(383.299927 0)"/>
      <use xlink:href="#HelveticaNeue-69" transform="translate(442.599915 0)"/>
      <use xlink:href="#HelveticaNeue-66" transform="translate(464.799911 0)"/>
      <use xlink:href="#HelveticaNeue-66" transform="translate(492.649902 0)"/>
      <use xlink:href="#HelveticaNeue-69" transform="translate(522.249893 0)"/>
      <use xlink:href="#HelveticaNeue-63" transform="translate(544.44989 0)"/>
      <use xlink:href="#HelveticaNeue-75" transform="translate(598.149887 0)"/>
      <use xlink:href="#HelveticaNeue-6c" transform="translate(653.749878 0)"/>
      <use xlink:href="#HelveticaNeue-74" transform="translate(675.949875 0)"/>
      <use xlink:href="#HelveticaNeue-79" transform="translate(707.44986 0)"/>
      <use xlink:href="#HelveticaNeue-20" transform="translate(757.449844 0)"/>
      <use xlink:href="#HelveticaNeue-67" transform="translate(785.249832 0)"/>
      <use xlink:href="#HelveticaNeue-61" transform="translate(842.649826 0)"/>
      <use xlink:href="#HelveticaNeue-70" transform="translate(896.349823 0)"/>
      <use xlink:href="#HelveticaNeue-20" transform="translate(955.649811 0)"/>
      <use xlink:href="#HelveticaNeue-28" transform="translate(983.449799 0)"/>
      <use xlink:href="#HelveticaNeue-70" transform="translate(1009.349792 0)"/>
      <use xlink:href="#HelveticaNeue-65" transform="translate(1068.64978 0)"/>
      <use xlink:href="#HelveticaNeue-72" transform="translate(1122.349777 0)"/>
      <use xlink:href="#HelveticaNeue-63" transform="translate(1153.899765 0)"/>
      <use xlink:href="#HelveticaNeue-65" transform="translate(1207.599762 0)"/>
      <use xlink:href="#HelveticaNeue-6e" transform="translate(1261.299759 0)"/>
      <use xlink:href="#HelveticaNeue-74" transform="translate(1316.89975 0)"/>
      <use xlink:href="#HelveticaNeue-61" transform="translate(1348.399734 0)"/>
      <use xlink:href="#HelveticaNeue-67" transform="translate(1402.099731 0)"/>
      <use xlink:href="#HelveticaNeue-65" transform="translate(1459.499725 0)"/>
      <use xlink:href="#HelveticaNeue-20" transform="translate(1513.199722 0)"/>
      <use xlink:href="#HelveticaNeue-70" transform="translate(1540.99971 0)"/>
      <use xlink:href="#HelveticaNeue-6f" transform="translate(1600.299698 0)"/>
      <use xlink:href="#HelveticaNeue-69" transform="translate(1657.699692 0)"/>
      <use xlink:href="#HelveticaNeue-6e" transform="translate(1679.899689 0)"/>
      <use xlink:href="#HelveticaNeue-74" transform="translate(1735.49968 0)"/>
      <use xlink:href="#HelveticaNeue-73" transform="translate(1766.999664 0)"/>
      <use xlink:href="#HelveticaNeue-20" transform="translate(1816.999649 0)"/>
      <use xlink:href="#HelveticaNeue-62" transform="translate(1844.799637 0)"/>
      <use xlink:href="#HelveticaNeue-65" transform="translate(1904.099625 0)"/>
      <use xlink:href="#HelveticaNeue-6c" transform="translate(1957.799622 0)"/>
      <use xlink:href="#HelveticaNeue-6f" transform="translate(1979.999619 0)"/>
      <use xlink:href="#HelveticaNeue-77" transform="translate(2037.399612 0)"/>
      <use xlink:href="#HelveticaNeue-20" transform="translate(2113.1996 0)"/>
      <use xlink:href="#HelveticaNeue-65" transform="translate(2140.999588 0)"/>
      <use xlink:href="#HelveticaNeue-61" transform="translate(2194.699585 0)"/>
      <use xlink:href="#HelveticaNeue-73" transform="translate(2248.399582 0)"/>
      <use xlink:href="#HelveticaNeue-69" transform="translate(2298.399567 0)"/>
      <use xlink:href="#HelveticaNeue-65" transform="translate(2320.599564 0)"/>
      <use xlink:href="#HelveticaNeue-73" transform="translate(2374.299561 0)"/>
      <use xlink:href="#HelveticaNeue-74" transform="translate(2424.299545 0)"/>
      <use xlink:href="#HelveticaNeue-20" transform="translate(2455.79953 0)"/>
      <use xlink:href="#HelveticaNeue-73" transform="translate(2483.599518 0)"/>
      <use xlink:href="#HelveticaNeue-74" transform="translate(2533.599503 0)"/>
      <use xlink:href="#HelveticaNeue-65" transform="translate(2565.099487 0)"/>
      <use xlink:href="#HelveticaNeue-6d" transform="translate(2618.799484 0)"/>
      <use xlink:href="#HelveticaNeue-29" transform="translate(2704.099472 0)"/>
      <use xlink:href="#HelveticaNeue-20" transform="translate(2729.999466 0)"/>
      <use xlink:href="#HelveticaNeue-2014" transform="translate(2757.799454 0)"/>
      <use xlink:href="#HelveticaNeue-20" transform="translate(2857.799438 0)"/>
      <use xlink:href="#HelveticaNeue-65" transform="translate(2885.599426 0)"/>
      <use xlink:href="#HelveticaNeue-61" transform="translate(2939.299423 0)"/>
      <use xlink:href="#HelveticaNeue-73" transform="translate(2992.99942 0)"/>
      <use xlink:href="#HelveticaNeue-69" transform="translate(3042.999405 0)"/>
      <use xlink:href="#HelveticaNeue-65" transform="translate(3065.199402 0)"/>
      <use xlink:href="#HelveticaNeue-73" transform="translate(3118.899399 0)"/>
      <use xlink:href="#HelveticaNeue-74" transform="translate(3168.899384 0)"/>
      <use xlink:href="#HelveticaNeue-20" transform="translate(3200.399368 0)"/>
      <use xlink:href="#HelveticaNeue-73" transform="translate(3228.199356 0)"/>
      <use xlink:href="#HelveticaNeue-74" transform="translate(3278.199341 0)"/>
      <use xlink:href="#HelveticaNeue-65" transform="translate(3309.699326 0)"/>
      <use xlink:href="#HelveticaNeue-6d" transform="translate(3363.399323 0)"/>
      <use xlink:href="#HelveticaNeue-20" transform="translate(3448.69931 0)"/>
      <use xlink:href="#HelveticaNeue-70" transform="translate(3476.499298 0)"/>
      <use xlink:href="#HelveticaNeue-6f" transform="translate(3535.799286 0)"/>
      <use xlink:href="#HelveticaNeue-6f" transform="translate(3593.19928 0)"/>
      <use xlink:href="#HelveticaNeue-6c" transform="translate(3650.599274 0)"/>
      <use xlink:href="#HelveticaNeue-65" transform="translate(3672.799271 0)"/>
      <use xlink:href="#HelveticaNeue-64" transform="translate(3726.499268 0)"/>
      <use xlink:href="#HelveticaNeue-20" transform="translate(3785.799255 0)"/>
      <use xlink:href="#HelveticaNeue-6b" transform="translate(3813.599243 0)"/>
      <use xlink:href="#HelveticaNeue-65" transform="translate(3865.499237 0)"/>
      <use xlink:href="#HelveticaNeue-79" transform="translate(3919.199234 0)"/>
      <use xlink:href="#HelveticaNeue-65" transform="translate(3969.199219 0)"/>
      <use xlink:href="#HelveticaNeue-64" transform="translate(4022.899216 0)"/>
      <use xlink:href="#HelveticaNeue-20" transform="translate(4082.199203 0)"/>
      <use xlink:href="#HelveticaNeue-40" transform="translate(4109.999191 0)"/>
      <use xlink:href="#HelveticaNeue-20" transform="translate(4189.999176 0)"/>
      <use xlink:href="#HelveticaNeue-39" transform="translate(4217.799164 0)"/>
      <use xlink:href="#HelveticaNeue-37" transform="translate(4273.399155 0)"/>
      <use xlink:href="#HelveticaNeue-2e" transform="translate(4328.999146 0)"/>
      <use xlink:href="#HelveticaNeue-33" transform="translate(4356.799133 0)"/>
      <use xlink:href="#HelveticaNeue-25" transform="translate(4412.399124 0)"/>
     </g>
    </g>
   </g>
   <g id="matplotlib.axis_2">
    <g id="ytick_1">
     <g id="line2d_10">
      <defs>
       <path id="mf156e6ce4a" d="M 0 0 
L -3.5 0 
" style="stroke: #333333; stroke-width: 0.8"/>
      </defs>
      <g>
       <use xlink:href="#mf156e6ce4a" x="265.284844" y="531.238359" style="fill: #333333; stroke: #333333; stroke-width: 0.8"/>
      </g>
     </g>
     <g id="text_11">
      <!-- 3D  Implicit carbons (bond-line) -->
      <g style="fill: #333333" transform="translate(62.492656 536.354921) scale(0.14 -0.14)">
       <defs>
        <path id="HelveticaNeue-44" d="M 1107 512 
L 1107 4058 
L 2131 4058 
Q 2554 4058 2842 3939 
Q 3130 3821 3312 3593 
Q 3494 3366 3574 3043 
Q 3654 2720 3654 2310 
Q 3654 1888 3568 1590 
Q 3482 1293 3347 1094 
Q 3213 896 3043 781 
Q 2874 666 2701 605 
Q 2528 544 2374 528 
Q 2221 512 2118 512 
L 1107 512 
z
M 499 4570 
L 499 0 
L 2067 0 
Q 2637 0 3053 160 
Q 3469 320 3737 624 
Q 4006 928 4134 1373 
Q 4262 1818 4262 2394 
Q 4262 3494 3692 4032 
Q 3123 4570 2067 4570 
L 499 4570 
z
" transform="scale(0.015625)"/>
        <path id="HelveticaNeue-49" d="M 525 4570 
L 525 0 
L 1133 0 
L 1133 4570 
L 525 4570 
z
" transform="scale(0.015625)"/>
        <path id="HelveticaNeue-2d" d="M 320 2035 
L 320 1523 
L 2170 1523 
L 2170 2035 
L 320 2035 
z
" transform="scale(0.015625)"/>
       </defs>
       <use xlink:href="#HelveticaNeue-33"/>
       <use xlink:href="#HelveticaNeue-44" transform="translate(55.599991 0)"/>
       <use xlink:href="#HelveticaNeue-20" transform="translate(125.999985 0)"/>
       <use xlink:href="#HelveticaNeue-20" transform="translate(153.799973 0)"/>
       <use xlink:href="#HelveticaNeue-49" transform="translate(181.59996 0)"/>
       <use xlink:href="#HelveticaNeue-6d" transform="translate(207.499954 0)"/>
       <use xlink:href="#HelveticaNeue-70" transform="translate(292.799942 0)"/>
       <use xlink:href="#HelveticaNeue-6c" transform="translate(352.09993 0)"/>
       <use xlink:href="#HelveticaNeue-69" transform="translate(374.299927 0)"/>
       <use xlink:href="#HelveticaNeue-63" transform="translate(396.499924 0)"/>
       <use xlink:href="#HelveticaNeue-69" transform="translate(450.199921 0)"/>
       <use xlink:href="#HelveticaNeue-74" transform="translate(472.399918 0)"/>
       <use xlink:href="#HelveticaNeue-20" transform="translate(503.899902 0)"/>
       <use xlink:href="#HelveticaNeue-63" transform="translate(531.69989 0)"/>
       <use xlink:href="#HelveticaNeue-61" transform="translate(585.399887 0)"/>
       <use xlink:href="#HelveticaNeue-72" transform="translate(639.099884 0)"/>
       <use xlink:href="#HelveticaNeue-62" transform="translate(672.399872 0)"/>
       <use xlink:href="#HelveticaNeue-6f" transform="translate(731.69986 0)"/>
       <use xlink:href="#HelveticaNeue-6e" transform="translate(789.099854 0)"/>
       <use xlink:href="#HelveticaNeue-73" transform="translate(844.699844 0)"/>
       <use xlink:href="#HelveticaNeue-20" transform="translate(894.699829 0)"/>
       <use xlink:href="#HelveticaNeue-28" transform="translate(922.499817 0)"/>
       <use xlink:href="#HelveticaNeue-62" transform="translate(948.399811 0)"/>
       <use xlink:href="#HelveticaNeue-6f" transform="translate(1007.699799 0)"/>
       <use xlink:href="#HelveticaNeue-6e" transform="translate(1065.099792 0)"/>
       <use xlink:href="#HelveticaNeue-64" transform="translate(1120.699783 0)"/>
       <use xlink:href="#HelveticaNeue-2d" transform="translate(1179.999771 0)"/>
       <use xlink:href="#HelveticaNeue-6c" transform="translate(1218.899765 0)"/>
       <use xlink:href="#HelveticaNeue-69" transform="translate(1241.099762 0)"/>
       <use xlink:href="#HelveticaNeue-6e" transform="translate(1263.299759 0)"/>
       <use xlink:href="#HelveticaNeue-65" transform="translate(1318.89975 0)"/>
       <use xlink:href="#HelveticaNeue-29" transform="translate(1372.599747 0)"/>
      </g>
     </g>
    </g>
    <g id="ytick_2">
     <g id="line2d_11">
      <g>
       <use xlink:href="#mf156e6ce4a" x="265.284844" y="446.253021" style="fill: #333333; stroke: #333333; stroke-width: 0.8"/>
      </g>
     </g>
     <g id="text_12">
      <!-- 3E  Atom count (structure) -->
      <g style="fill: #333333" transform="translate(94.635781 451.369584) scale(0.14 -0.14)">
       <defs>
        <path id="HelveticaNeue-45" d="M 499 4570 
L 499 0 
L 3674 0 
L 3674 512 
L 1107 512 
L 1107 2093 
L 3482 2093 
L 3482 2605 
L 1107 2605 
L 1107 4058 
L 3654 4058 
L 3654 4570 
L 499 4570 
z
" transform="scale(0.015625)"/>
        <path id="HelveticaNeue-41" d="M 1286 1888 
L 2061 4019 
L 2074 4019 
L 2835 1888 
L 1286 1888 
z
M 1741 4570 
L -38 0 
L 582 0 
L 1094 1376 
L 3027 1376 
L 3526 0 
L 4198 0 
L 2413 4570 
L 1741 4570 
z
" transform="scale(0.015625)"/>
       </defs>
       <use xlink:href="#HelveticaNeue-33"/>
       <use xlink:href="#HelveticaNeue-45" transform="translate(55.599991 0)"/>
       <use xlink:href="#HelveticaNeue-20" transform="translate(116.699982 0)"/>
       <use xlink:href="#HelveticaNeue-20" transform="translate(144.499969 0)"/>
       <use xlink:href="#HelveticaNeue-41" transform="translate(172.299957 0)"/>
       <use xlink:href="#HelveticaNeue-74" transform="translate(237.099945 0)"/>
       <use xlink:href="#HelveticaNeue-6f" transform="translate(268.59993 0)"/>
       <use xlink:href="#HelveticaNeue-6d" transform="translate(325.999924 0)"/>
       <use xlink:href="#HelveticaNeue-20" transform="translate(411.299911 0)"/>
       <use xlink:href="#HelveticaNeue-63" transform="translate(439.099899 0)"/>
       <use xlink:href="#HelveticaNeue-6f" transform="translate(492.799896 0)"/>
       <use xlink:href="#HelveticaNeue-75" transform="translate(550.19989 0)"/>
       <use xlink:href="#HelveticaNeue-6e" transform="translate(605.799881 0)"/>
       <use xlink:href="#HelveticaNeue-74" transform="translate(661.399872 0)"/>
       <use xlink:href="#HelveticaNeue-20" transform="translate(692.899857 0)"/>
       <use xlink:href="#HelveticaNeue-28" transform="translate(720.699844 0)"/>
       <use xlink:href="#HelveticaNeue-73" transform="translate(746.599838 0)"/>
       <use xlink:href="#HelveticaNeue-74" transform="translate(796.599823 0)"/>
       <use xlink:href="#HelveticaNeue-72" transform="translate(828.099808 0)"/>
       <use xlink:href="#HelveticaNeue-75" transform="translate(861.399796 0)"/>
       <use xlink:href="#HelveticaNeue-63" transform="translate(916.999786 0)"/>
       <use xlink:href="#HelveticaNeue-74" transform="translate(970.699783 0)"/>
       <use xlink:href="#HelveticaNeue-75" transform="translate(1002.199768 0)"/>
       <use xlink:href="#HelveticaNeue-72" transform="translate(1057.799759 0)"/>
       <use xlink:href="#HelveticaNeue-65" transform="translate(1089.349747 0)"/>
       <use xlink:href="#HelveticaNeue-29" transform="translate(1143.049744 0)"/>
      </g>
     </g>
    </g>
    <g id="ytick_3">
     <g id="line2d_12">
      <g>
       <use xlink:href="#mf156e6ce4a" x="265.284844" y="361.267684" style="fill: #333333; stroke: #333333; stroke-width: 0.8"/>
      </g>
     </g>
     <g id="text_13">
      <!-- 3F  Coffee example (application) -->
      <g style="fill: #333333" transform="translate(56.549219 366.384247) scale(0.14 -0.14)">
       <defs>
        <path id="HelveticaNeue-46" d="M 499 4570 
L 499 0 
L 1107 0 
L 1107 2093 
L 3206 2093 
L 3206 2605 
L 1107 2605 
L 1107 4058 
L 3501 4058 
L 3501 4570 
L 499 4570 
z
" transform="scale(0.015625)"/>
        <path id="HelveticaNeue-43" d="M 3712 3194 
L 4320 3194 
Q 4269 3558 4102 3836 
Q 3936 4115 3686 4300 
Q 3437 4486 3117 4582 
Q 2797 4678 2438 4678 
Q 1914 4678 1507 4489 
Q 1101 4301 829 3974 
Q 557 3648 416 3209 
Q 275 2771 275 2272 
Q 275 1773 406 1337 
Q 538 902 800 582 
Q 1062 262 1459 80 
Q 1856 -102 2387 -102 
Q 3264 -102 3769 378 
Q 4275 858 4365 1722 
L 3757 1722 
Q 3738 1440 3642 1197 
Q 3546 954 3376 778 
Q 3206 602 2972 502 
Q 2739 403 2438 403 
Q 2029 403 1734 556 
Q 1440 710 1251 969 
Q 1062 1229 972 1577 
Q 883 1926 883 2317 
Q 883 2675 972 3008 
Q 1062 3341 1251 3600 
Q 1440 3859 1731 4012 
Q 2022 4166 2432 4166 
Q 2912 4166 3261 3923 
Q 3610 3680 3712 3194 
z
" transform="scale(0.015625)"/>
        <path id="HelveticaNeue-78" d="M 1299 1741 
L 58 0 
L 717 0 
L 1638 1370 
L 2560 0 
L 3258 0 
L 1978 1786 
L 3117 3309 
L 2464 3309 
L 1638 2150 
L 845 3309 
L 147 3309 
L 1299 1741 
z
" transform="scale(0.015625)"/>
       </defs>
       <use xlink:href="#HelveticaNeue-33"/>
       <use xlink:href="#HelveticaNeue-46" transform="translate(55.599991 0)"/>
       <use xlink:href="#HelveticaNeue-20" transform="translate(112.999985 0)"/>
       <use xlink:href="#HelveticaNeue-20" transform="translate(140.799973 0)"/>
       <use xlink:href="#HelveticaNeue-43" transform="translate(168.59996 0)"/>
       <use xlink:href="#HelveticaNeue-6f" transform="translate(240.799942 0)"/>
       <use xlink:href="#HelveticaNeue-66" transform="translate(298.199936 0)"/>
       <use xlink:href="#HelveticaNeue-66" transform="translate(326.049927 0)"/>
       <use xlink:href="#HelveticaNeue-65" transform="translate(355.649918 0)"/>
       <use xlink:href="#HelveticaNeue-65" transform="translate(409.349915 0)"/>
       <use xlink:href="#HelveticaNeue-20" transform="translate(463.049911 0)"/>
       <use xlink:href="#HelveticaNeue-65" transform="translate(490.849899 0)"/>
       <use xlink:href="#HelveticaNeue-78" transform="translate(544.549896 0)"/>
       <use xlink:href="#HelveticaNeue-61" transform="translate(596.349884 0)"/>
       <use xlink:href="#HelveticaNeue-6d" transform="translate(650.049881 0)"/>
       <use xlink:href="#HelveticaNeue-70" transform="translate(735.349869 0)"/>
       <use xlink:href="#HelveticaNeue-6c" transform="translate(794.649857 0)"/>
       <use xlink:href="#HelveticaNeue-65" transform="translate(816.849854 0)"/>
       <use xlink:href="#HelveticaNeue-20" transform="translate(870.54985 0)"/>
       <use xlink:href="#HelveticaNeue-28" transform="translate(898.349838 0)"/>
       <use xlink:href="#HelveticaNeue-61" transform="translate(924.249832 0)"/>
       <use xlink:href="#HelveticaNeue-70" transform="translate(977.949829 0)"/>
       <use xlink:href="#HelveticaNeue-70" transform="translate(1037.249817 0)"/>
       <use xlink:href="#HelveticaNeue-6c" transform="translate(1096.549805 0)"/>
       <use xlink:href="#HelveticaNeue-69" transform="translate(1118.749802 0)"/>
       <use xlink:href="#HelveticaNeue-63" transform="translate(1140.949799 0)"/>
       <use xlink:href="#HelveticaNeue-61" transform="translate(1194.649796 0)"/>
       <use xlink:href="#HelveticaNeue-74" transform="translate(1248.349792 0)"/>
       <use xlink:href="#HelveticaNeue-69" transform="translate(1279.849777 0)"/>
       <use xlink:href="#HelveticaNeue-6f" transform="translate(1302.049774 0)"/>
       <use xlink:href="#HelveticaNeue-6e" transform="translate(1359.449768 0)"/>
       <use xlink:href="#HelveticaNeue-29" transform="translate(1415.049759 0)"/>
      </g>
     </g>
    </g>
    <g id="ytick_4">
     <g id="line2d_13">
      <g>
       <use xlink:href="#mf156e6ce4a" x="265.284844" y="276.282347" style="fill: #333333; stroke: #333333; stroke-width: 0.8"/>
      </g>
     </g>
     <g id="text_14">
      <!-- 3A  Definition of organic chemistry -->
      <g style="fill: #333333" transform="translate(43.715156 281.336566) scale(0.14 -0.14)">
       <defs>
        <path id="HelveticaNeue-68" d="M 410 4570 
L 410 0 
L 954 0 
L 954 1869 
Q 954 2093 1014 2281 
Q 1075 2470 1196 2611 
Q 1318 2752 1500 2829 
Q 1683 2906 1933 2906 
Q 2246 2906 2425 2726 
Q 2605 2547 2605 2240 
L 2605 0 
L 3149 0 
L 3149 2176 
Q 3149 2445 3094 2665 
Q 3040 2886 2905 3046 
Q 2771 3206 2553 3296 
Q 2336 3386 2010 3386 
Q 1862 3386 1705 3354 
Q 1549 3322 1405 3254 
Q 1261 3187 1145 3081 
Q 1030 2976 966 2822 
L 954 2822 
L 954 4570 
L 410 4570 
z
" transform="scale(0.015625)"/>
       </defs>
       <use xlink:href="#HelveticaNeue-33"/>
       <use xlink:href="#HelveticaNeue-41" transform="translate(55.599991 0)"/>
       <use xlink:href="#HelveticaNeue-20" transform="translate(120.399979 0)"/>
       <use xlink:href="#HelveticaNeue-20" transform="translate(148.199966 0)"/>
       <use xlink:href="#HelveticaNeue-44" transform="translate(175.999954 0)"/>
       <use xlink:href="#HelveticaNeue-65" transform="translate(246.399948 0)"/>
       <use xlink:href="#HelveticaNeue-66" transform="translate(300.099945 0)"/>
       <use xlink:href="#HelveticaNeue-69" transform="translate(329.699936 0)"/>
       <use xlink:href="#HelveticaNeue-6e" transform="translate(351.899933 0)"/>
       <use xlink:href="#HelveticaNeue-69" transform="translate(407.499924 0)"/>
       <use xlink:href="#HelveticaNeue-74" transform="translate(429.699921 0)"/>
       <use xlink:href="#HelveticaNeue-69" transform="translate(461.199905 0)"/>
       <use xlink:href="#HelveticaNeue-6f" transform="translate(483.399902 0)"/>
       <use xlink:href="#HelveticaNeue-6e" transform="translate(540.799896 0)"/>
       <use xlink:href="#HelveticaNeue-20" transform="translate(596.399887 0)"/>
       <use xlink:href="#HelveticaNeue-6f" transform="translate(624.199875 0)"/>
       <use xlink:href="#HelveticaNeue-66" transform="translate(681.599869 0)"/>
       <use xlink:href="#HelveticaNeue-20" transform="translate(711.19986 0)"/>
       <use xlink:href="#HelveticaNeue-6f" transform="translate(738.999847 0)"/>
       <use xlink:href="#HelveticaNeue-72" transform="translate(796.399841 0)"/>
       <use xlink:href="#HelveticaNeue-67" transform="translate(826.949829 0)"/>
       <use xlink:href="#HelveticaNeue-61" transform="translate(884.349823 0)"/>
       <use xlink:href="#HelveticaNeue-6e" transform="translate(938.04982 0)"/>
       <use xlink:href="#HelveticaNeue-69" transform="translate(993.649811 0)"/>
       <use xlink:href="#HelveticaNeue-63" transform="translate(1015.849808 0)"/>
       <use xlink:href="#HelveticaNeue-20" transform="translate(1069.549805 0)"/>
       <use xlink:href="#HelveticaNeue-63" transform="translate(1097.349792 0)"/>
       <use xlink:href="#HelveticaNeue-68" transform="translate(1151.049789 0)"/>
       <use xlink:href="#HelveticaNeue-65" transform="translate(1206.64978 0)"/>
       <use xlink:href="#HelveticaNeue-6d" transform="translate(1260.349777 0)"/>
       <use xlink:href="#HelveticaNeue-69" transform="translate(1345.649765 0)"/>
       <use xlink:href="#HelveticaNeue-73" transform="translate(1367.849762 0)"/>
       <use xlink:href="#HelveticaNeue-74" transform="translate(1417.849747 0)"/>
       <use xlink:href="#HelveticaNeue-72" transform="translate(1449.349731 0)"/>
       <use xlink:href="#HelveticaNeue-79" transform="translate(1482.649719 0)"/>
      </g>
     </g>
    </g>
    <g id="ytick_5">
     <g id="line2d_14">
      <g>
       <use xlink:href="#mf156e6ce4a" x="265.284844" y="191.29701" style="fill: #333333; stroke: #333333; stroke-width: 0.8"/>
      </g>
     </g>
     <g id="text_15">
      <!-- 3C  Bonds on carbon -->
      <g style="fill: #333333" transform="translate(124.475469 196.295447) scale(0.14 -0.14)">
       <defs>
        <path id="HelveticaNeue-42" d="M 1107 2605 
L 1107 4058 
L 2323 4058 
Q 2522 4058 2698 4035 
Q 2874 4013 3008 3936 
Q 3142 3859 3219 3718 
Q 3296 3578 3296 3334 
Q 3296 2970 3069 2787 
Q 2842 2605 2323 2605 
L 1107 2605 
z
M 499 4570 
L 499 0 
L 2707 0 
Q 3046 0 3305 112 
Q 3565 224 3741 406 
Q 3917 589 4006 825 
Q 4096 1062 4096 1312 
Q 4096 1734 3872 2028 
Q 3648 2323 3226 2413 
L 3226 2426 
Q 3552 2554 3728 2819 
Q 3904 3085 3904 3450 
Q 3904 3795 3747 4032 
Q 3590 4269 3366 4403 
Q 3264 4467 3120 4499 
Q 2976 4531 2809 4547 
Q 2643 4563 2473 4566 
Q 2304 4570 2157 4570 
L 499 4570 
z
M 1107 512 
L 1107 2093 
L 2496 2093 
Q 2688 2093 2867 2057 
Q 3046 2022 3184 1936 
Q 3322 1850 3405 1702 
Q 3488 1555 3488 1331 
Q 3488 947 3261 729 
Q 3034 512 2630 512 
L 1107 512 
z
" transform="scale(0.015625)"/>
       </defs>
       <use xlink:href="#HelveticaNeue-33"/>
       <use xlink:href="#HelveticaNeue-43" transform="translate(55.599991 0)"/>
       <use xlink:href="#HelveticaNeue-20" transform="translate(127.799973 0)"/>
       <use xlink:href="#HelveticaNeue-20" transform="translate(155.59996 0)"/>
       <use xlink:href="#HelveticaNeue-42" transform="translate(183.399948 0)"/>
       <use xlink:href="#HelveticaNeue-6f" transform="translate(251.899933 0)"/>
       <use xlink:href="#HelveticaNeue-6e" transform="translate(309.299927 0)"/>
       <use xlink:href="#HelveticaNeue-64" transform="translate(364.899918 0)"/>
       <use xlink:href="#HelveticaNeue-73" transform="translate(424.199905 0)"/>
       <use xlink:href="#HelveticaNeue-20" transform="translate(474.19989 0)"/>
       <use xlink:href="#HelveticaNeue-6f" transform="translate(501.999878 0)"/>
       <use xlink:href="#HelveticaNeue-6e" transform="translate(559.399872 0)"/>
       <use xlink:href="#HelveticaNeue-20" transform="translate(614.999863 0)"/>
       <use xlink:href="#HelveticaNeue-63" transform="translate(642.79985 0)"/>
       <use xlink:href="#HelveticaNeue-61" transform="translate(696.499847 0)"/>
       <use xlink:href="#HelveticaNeue-72" transform="translate(750.199844 0)"/>
       <use xlink:href="#HelveticaNeue-62" transform="translate(783.499832 0)"/>
       <use xlink:href="#HelveticaNeue-6f" transform="translate(842.79982 0)"/>
       <use xlink:href="#HelveticaNeue-6e" transform="translate(900.199814 0)"/>
      </g>
     </g>
    </g>
    <g id="ytick_6">
     <g id="line2d_15">
      <g>
       <use xlink:href="#mf156e6ce4a" x="265.284844" y="106.311673" style="fill: #333333; stroke: #333333; stroke-width: 0.8"/>
      </g>
     </g>
     <g id="text_16">
      <!-- 3B  Wedges / hashes (3D) -->
      <g style="fill: #333333" transform="translate(96.762031 111.428235) scale(0.14 -0.14)">
       <defs>
        <path id="HelveticaNeue-57" d="M 4627 0 
L 5850 4570 
L 5242 4570 
L 4314 768 
L 4301 768 
L 3290 4570 
L 2630 4570 
L 1606 768 
L 1594 768 
L 698 4570 
L 77 4570 
L 1248 0 
L 1882 0 
L 2938 3840 
L 2950 3840 
L 3994 0 
L 4627 0 
z
" transform="scale(0.015625)"/>
        <path id="HelveticaNeue-2f" d="M 1779 4678 
L -109 -102 
L 352 -102 
L 2246 4678 
L 1779 4678 
z
" transform="scale(0.015625)"/>
       </defs>
       <use xlink:href="#HelveticaNeue-33"/>
       <use xlink:href="#HelveticaNeue-42" transform="translate(55.599991 0)"/>
       <use xlink:href="#HelveticaNeue-20" transform="translate(124.099976 0)"/>
       <use xlink:href="#HelveticaNeue-20" transform="translate(151.899963 0)"/>
       <use xlink:href="#HelveticaNeue-57" transform="translate(179.699951 0)"/>
       <use xlink:href="#HelveticaNeue-65" transform="translate(266.549942 0)"/>
       <use xlink:href="#HelveticaNeue-64" transform="translate(320.249939 0)"/>
       <use xlink:href="#HelveticaNeue-67" transform="translate(379.549927 0)"/>
       <use xlink:href="#HelveticaNeue-65" transform="translate(436.949921 0)"/>
       <use xlink:href="#HelveticaNeue-73" transform="translate(490.649918 0)"/>
       <use xlink:href="#HelveticaNeue-20" transform="translate(540.649902 0)"/>
       <use xlink:href="#HelveticaNeue-2f" transform="translate(568.44989 0)"/>
       <use xlink:href="#HelveticaNeue-20" transform="translate(601.749878 0)"/>
       <use xlink:href="#HelveticaNeue-68" transform="translate(629.549866 0)"/>
       <use xlink:href="#HelveticaNeue-61" transform="translate(685.149857 0)"/>
       <use xlink:href="#HelveticaNeue-73" transform="translate(738.849854 0)"/>
       <use xlink:href="#HelveticaNeue-68" transform="translate(788.849838 0)"/>
       <use xlink:href="#HelveticaNeue-65" transform="translate(844.449829 0)"/>
       <use xlink:href="#HelveticaNeue-73" transform="translate(898.149826 0)"/>
       <use xlink:href="#HelveticaNeue-20" transform="translate(948.149811 0)"/>
       <use xlink:href="#HelveticaNeue-28" transform="translate(975.949799 0)"/>
       <use xlink:href="#HelveticaNeue-33" transform="translate(1001.849792 0)"/>
       <use xlink:href="#HelveticaNeue-44" transform="translate(1057.449783 0)"/>
       <use xlink:href="#HelveticaNeue-29" transform="translate(1127.849777 0)"/>
      </g>
     </g>
    </g>
   </g>
   <g id="patch_9">
    <path d="M 265.284844 579.595016 
L 265.284844 57.955016 
" style="fill: none; stroke: #333333; stroke-width: 0.8; stroke-linejoin: miter; stroke-linecap: square"/>
   </g>
   <g id="patch_10">
    <path d="M 1122.084844 579.595016 
L 1122.084844 57.955016 
" style="fill: none; stroke: #333333; stroke-width: 0.8; stroke-linejoin: miter; stroke-linecap: square"/>
   </g>
   <g id="patch_11">
    <path d="M 265.284844 579.595016 
L 1122.084844 579.595016 
" style="fill: none; stroke: #333333; stroke-width: 0.8; stroke-linejoin: miter; stroke-linecap: square"/>
   </g>
   <g id="patch_12">
    <path d="M 265.284844 57.955016 
L 1122.084844 57.955016 
" style="fill: none; stroke: #333333; stroke-width: 0.8; stroke-linejoin: miter; stroke-linecap: square"/>
   </g>
   <g id="text_17">
    <!-- -14.4 pp -->
    <g style="fill: #333333" transform="translate(978.114352 534.340546) scale(0.12 -0.12)">
     <use xlink:href="#HelveticaNeue-2d"/>
     <use xlink:href="#HelveticaNeue-31" transform="translate(38.899994 0)"/>
     <use xlink:href="#HelveticaNeue-34" transform="translate(94.499985 0)"/>
     <use xlink:href="#HelveticaNeue-2e" transform="translate(150.099976 0)"/>
     <use xlink:href="#HelveticaNeue-34" transform="translate(177.899963 0)"/>
     <use xlink:href="#HelveticaNeue-20" transform="translate(233.499954 0)"/>
     <use xlink:href="#HelveticaNeue-70" transform="translate(261.299942 0)"/>
     <use xlink:href="#HelveticaNeue-70" transform="translate(320.59993 0)"/>
    </g>
   </g>
   <g id="text_18">
    <!-- -4.5 pp -->
    <g style="fill: #333333" transform="translate(495.975773 449.355209) scale(0.12 -0.12)">
     <defs>
      <path id="HelveticaNeue-35" d="M 3008 3981 
L 3008 4461 
L 768 4461 
L 346 2106 
L 813 2080 
Q 973 2272 1181 2390 
Q 1389 2509 1658 2509 
Q 1888 2509 2077 2432 
Q 2266 2355 2400 2217 
Q 2534 2080 2608 1891 
Q 2682 1702 2682 1478 
Q 2682 1210 2605 1008 
Q 2528 806 2397 672 
Q 2266 538 2090 470 
Q 1914 403 1722 403 
Q 1517 403 1347 464 
Q 1178 525 1053 637 
Q 928 749 854 899 
Q 781 1050 768 1222 
L 224 1222 
Q 230 915 345 672 
Q 461 429 659 265 
Q 858 102 1117 16 
Q 1376 -70 1670 -70 
Q 2067 -70 2364 54 
Q 2662 179 2860 390 
Q 3059 602 3158 874 
Q 3258 1146 3258 1434 
Q 3258 1824 3142 2115 
Q 3027 2406 2828 2601 
Q 2630 2797 2361 2893 
Q 2093 2989 1792 2989 
Q 1562 2989 1328 2909 
Q 1094 2829 947 2662 
L 934 2675 
L 1178 3981 
L 3008 3981 
z
" transform="scale(0.015625)"/>
     </defs>
     <use xlink:href="#HelveticaNeue-2d"/>
     <use xlink:href="#HelveticaNeue-34" transform="translate(38.899994 0)"/>
     <use xlink:href="#HelveticaNeue-2e" transform="translate(94.499985 0)"/>
     <use xlink:href="#HelveticaNeue-35" transform="translate(122.299973 0)"/>
     <use xlink:href="#HelveticaNeue-20" transform="translate(177.899963 0)"/>
     <use xlink:href="#HelveticaNeue-70" transform="translate(205.699951 0)"/>
     <use xlink:href="#HelveticaNeue-70" transform="translate(264.999939 0)"/>
    </g>
   </g>
   <g id="text_19">
    <!-- -2.4 pp -->
    <g style="fill: #333333" transform="translate(394.196965 364.369872) scale(0.12 -0.12)">
     <use xlink:href="#HelveticaNeue-2d"/>
     <use xlink:href="#HelveticaNeue-32" transform="translate(38.899994 0)"/>
     <use xlink:href="#HelveticaNeue-2e" transform="translate(94.499985 0)"/>
     <use xlink:href="#HelveticaNeue-34" transform="translate(122.299973 0)"/>
     <use xlink:href="#HelveticaNeue-20" transform="translate(177.899963 0)"/>
     <use xlink:href="#HelveticaNeue-70" transform="translate(205.699951 0)"/>
     <use xlink:href="#HelveticaNeue-70" transform="translate(264.999939 0)"/>
    </g>
   </g>
   <g id="text_20">
    <!-- -2.1 pp -->
    <g style="fill: #333333" transform="translate(378.617782 279.384535) scale(0.12 -0.12)">
     <use xlink:href="#HelveticaNeue-2d"/>
     <use xlink:href="#HelveticaNeue-32" transform="translate(38.899994 0)"/>
     <use xlink:href="#HelveticaNeue-2e" transform="translate(94.499985 0)"/>
     <use xlink:href="#HelveticaNeue-31" transform="translate(122.299973 0)"/>
     <use xlink:href="#HelveticaNeue-20" transform="translate(177.899963 0)"/>
     <use xlink:href="#HelveticaNeue-70" transform="translate(205.699951 0)"/>
     <use xlink:href="#HelveticaNeue-70" transform="translate(264.999939 0)"/>
    </g>
   </g>
   <g id="text_21">
    <!-- -1.0 pp -->
    <g style="fill: #333333" transform="translate(326.872636 194.399197) scale(0.12 -0.12)">
     <use xlink:href="#HelveticaNeue-2d"/>
     <use xlink:href="#HelveticaNeue-31" transform="translate(38.899994 0)"/>
     <use xlink:href="#HelveticaNeue-2e" transform="translate(94.499985 0)"/>
     <use xlink:href="#HelveticaNeue-30" transform="translate(122.299973 0)"/>
     <use xlink:href="#HelveticaNeue-20" transform="translate(177.899963 0)"/>
     <use xlink:href="#HelveticaNeue-70" transform="translate(205.699951 0)"/>
     <use xlink:href="#HelveticaNeue-70" transform="translate(264.999939 0)"/>
    </g>
   </g>
   <g id="text_22">
    <!-- -0.0 pp -->
    <g style="fill: #333333" transform="translate(275.81927 109.41386) scale(0.12 -0.12)">
     <use xlink:href="#HelveticaNeue-2d"/>
     <use xlink:href="#HelveticaNeue-30" transform="translate(38.899994 0)"/>
     <use xlink:href="#HelveticaNeue-2e" transform="translate(94.499985 0)"/>
     <use xlink:href="#HelveticaNeue-30" transform="translate(122.299973 0)"/>
     <use xlink:href="#HelveticaNeue-20" transform="translate(177.899963 0)"/>
     <use xlink:href="#HelveticaNeue-70" transform="translate(205.699951 0)"/>
     <use xlink:href="#HelveticaNeue-70" transform="translate(264.999939 0)"/>
    </g>
   </g>
   <g id="text_23">
    <!-- Fig. 3 — Relative difficulty ranking (pooled MQ + DD merged) -->
    <g style="fill: #005587" transform="translate(462.25375 19.625937) scale(0.17 -0.17)">
     <defs>
      <path id="HelveticaNeue-4d" d="M 512 4570 
L 512 0 
L 1088 0 
L 1088 3802 
L 1101 3802 
L 2528 0 
L 3046 0 
L 4474 3802 
L 4486 3802 
L 4486 0 
L 5062 0 
L 5062 4570 
L 4230 4570 
L 2784 730 
L 1344 4570 
L 512 4570 
z
" transform="scale(0.015625)"/>
      <path id="HelveticaNeue-51" d="M 2880 1306 
L 2560 934 
L 3066 531 
Q 2758 403 2432 403 
Q 2016 403 1715 566 
Q 1414 730 1222 998 
Q 1030 1267 940 1603 
Q 851 1939 851 2285 
Q 851 2630 940 2966 
Q 1030 3302 1222 3571 
Q 1414 3840 1715 4003 
Q 2016 4166 2432 4166 
Q 2848 4166 3149 4003 
Q 3450 3840 3642 3571 
Q 3834 3302 3923 2966 
Q 4013 2630 4013 2285 
Q 4013 1862 3885 1475 
Q 3757 1088 3488 819 
L 2880 1306 
z
M 4224 -390 
L 4531 -6 
L 3930 467 
Q 4275 813 4448 1286 
Q 4621 1760 4621 2285 
Q 4621 2752 4483 3184 
Q 4346 3616 4070 3949 
Q 3795 4282 3385 4480 
Q 2976 4678 2432 4678 
Q 1888 4678 1478 4480 
Q 1069 4282 793 3949 
Q 518 3616 380 3184 
Q 243 2752 243 2285 
Q 243 1818 380 1386 
Q 518 954 793 621 
Q 1069 288 1478 93 
Q 1888 -102 2432 -102 
Q 3066 -102 3526 166 
L 4224 -390 
z
" transform="scale(0.015625)"/>
      <path id="HelveticaNeue-2b" d="M 2138 1837 
L 2138 3238 
L 1702 3238 
L 1702 1837 
L 307 1837 
L 307 1402 
L 1702 1402 
L 1702 0 
L 2138 0 
L 2138 1402 
L 3533 1402 
L 3533 1837 
L 2138 1837 
z
" transform="scale(0.015625)"/>
     </defs>
     <use xlink:href="#HelveticaNeue-46"/>
     <use xlink:href="#HelveticaNeue-69" transform="translate(57.399994 0)"/>
     <use xlink:href="#HelveticaNeue-67" transform="translate(79.599991 0)"/>
     <use xlink:href="#HelveticaNeue-2e" transform="translate(136.999985 0)"/>
     <use xlink:href="#HelveticaNeue-20" transform="translate(164.799973 0)"/>
     <use xlink:href="#HelveticaNeue-33" transform="translate(192.59996 0)"/>
     <use xlink:href="#HelveticaNeue-20" transform="translate(248.199951 0)"/>
     <use xlink:href="#HelveticaNeue-2014" transform="translate(275.999939 0)"/>
     <use xlink:href="#HelveticaNeue-20" transform="translate(375.999924 0)"/>
     <use xlink:href="#HelveticaNeue-52" transform="translate(403.799911 0)"/>
     <use xlink:href="#HelveticaNeue-65" transform="translate(472.299896 0)"/>
     <use xlink:href="#HelveticaNeue-6c" transform="translate(525.999893 0)"/>
     <use xlink:href="#HelveticaNeue-61" transform="translate(548.19989 0)"/>
     <use xlink:href="#HelveticaNeue-74" transform="translate(601.899887 0)"/>
     <use xlink:href="#HelveticaNeue-69" transform="translate(633.399872 0)"/>
     <use xlink:href="#HelveticaNeue-76" transform="translate(655.599869 0)"/>
     <use xlink:href="#HelveticaNeue-65" transform="translate(705.599854 0)"/>
     <use xlink:href="#HelveticaNeue-20" transform="translate(759.29985 0)"/>
     <use xlink:href="#HelveticaNeue-64" transform="translate(787.099838 0)"/>
     <use xlink:href="#HelveticaNeue-69" transform="translate(846.399826 0)"/>
     <use xlink:href="#HelveticaNeue-66" transform="translate(868.599823 0)"/>
     <use xlink:href="#HelveticaNeue-66" transform="translate(896.449814 0)"/>
     <use xlink:href="#HelveticaNeue-69" transform="translate(926.049805 0)"/>
     <use xlink:href="#HelveticaNeue-63" transform="translate(948.249802 0)"/>
     <use xlink:href="#HelveticaNeue-75" transform="translate(1001.949799 0)"/>
     <use xlink:href="#HelveticaNeue-6c" transform="translate(1057.549789 0)"/>
     <use xlink:href="#HelveticaNeue-74" transform="translate(1079.749786 0)"/>
     <use xlink:href="#HelveticaNeue-79" transform="translate(1111.249771 0)"/>
     <use xlink:href="#HelveticaNeue-20" transform="translate(1161.249756 0)"/>
     <use xlink:href="#HelveticaNeue-72" transform="translate(1189.049744 0)"/>
     <use xlink:href="#HelveticaNeue-61" transform="translate(1222.349731 0)"/>
     <use xlink:href="#HelveticaNeue-6e" transform="translate(1276.049728 0)"/>
     <use xlink:href="#HelveticaNeue-6b" transform="translate(1331.649719 0)"/>
     <use xlink:href="#HelveticaNeue-69" transform="translate(1383.549713 0)"/>
     <use xlink:href="#HelveticaNeue-6e" transform="translate(1405.74971 0)"/>
     <use xlink:href="#HelveticaNeue-67" transform="translate(1461.349701 0)"/>
     <use xlink:href="#HelveticaNeue-20" transform="translate(1518.749695 0)"/>
     <use xlink:href="#HelveticaNeue-28" transform="translate(1546.549683 0)"/>
     <use xlink:href="#HelveticaNeue-70" transform="translate(1572.449677 0)"/>
     <use xlink:href="#HelveticaNeue-6f" transform="translate(1631.749664 0)"/>
     <use xlink:href="#HelveticaNeue-6f" transform="translate(1689.149658 0)"/>
     <use xlink:href="#HelveticaNeue-6c" transform="translate(1746.549652 0)"/>
     <use xlink:href="#HelveticaNeue-65" transform="translate(1768.749649 0)"/>
     <use xlink:href="#HelveticaNeue-64" transform="translate(1822.449646 0)"/>
     <use xlink:href="#HelveticaNeue-20" transform="translate(1881.749634 0)"/>
     <use xlink:href="#HelveticaNeue-4d" transform="translate(1909.549622 0)"/>
     <use xlink:href="#HelveticaNeue-51" transform="translate(1996.649612 0)"/>
     <use xlink:href="#HelveticaNeue-20" transform="translate(2072.649597 0)"/>
     <use xlink:href="#HelveticaNeue-2b" transform="translate(2100.449585 0)"/>
     <use xlink:href="#HelveticaNeue-20" transform="translate(2160.44957 0)"/>
     <use xlink:href="#HelveticaNeue-44" transform="translate(2188.249557 0)"/>
     <use xlink:href="#HelveticaNeue-44" transform="translate(2258.649551 0)"/>
     <use xlink:href="#HelveticaNeue-20" transform="translate(2329.049545 0)"/>
     <use xlink:href="#HelveticaNeue-6d" transform="translate(2356.849533 0)"/>
     <use xlink:href="#HelveticaNeue-65" transform="translate(2442.149521 0)"/>
     <use xlink:href="#HelveticaNeue-72" transform="translate(2495.849518 0)"/>
     <use xlink:href="#HelveticaNeue-67" transform="translate(2526.399506 0)"/>
     <use xlink:href="#HelveticaNeue-65" transform="translate(2583.7995 0)"/>
     <use xlink:href="#HelveticaNeue-64" transform="translate(2637.499496 0)"/>
     <use xlink:href="#HelveticaNeue-29" transform="translate(2696.799484 0)"/>
    </g>
    <!-- Gap (percentage points) = easiest stem pooled keyed % minus this stem pooled keyed % (larger = harder vs best item). -->
    <g style="fill: #005587" transform="translate(239.7025 39.955016) scale(0.17 -0.17)">
     <defs>
      <path id="HelveticaNeue-47" d="M 3917 570 
L 4077 0 
L 4461 0 
L 4461 2406 
L 2458 2406 
L 2458 1894 
L 3917 1894 
Q 3930 1581 3834 1309 
Q 3738 1037 3549 835 
Q 3360 634 3085 518 
Q 2810 403 2451 403 
Q 2067 403 1776 553 
Q 1485 704 1286 957 
Q 1088 1210 985 1539 
Q 883 1869 883 2227 
Q 883 2592 972 2941 
Q 1062 3290 1251 3562 
Q 1440 3834 1737 4000 
Q 2035 4166 2451 4166 
Q 2707 4166 2934 4105 
Q 3162 4045 3341 3923 
Q 3520 3802 3641 3613 
Q 3763 3424 3808 3162 
L 4416 3162 
Q 4352 3565 4176 3849 
Q 4000 4134 3741 4320 
Q 3482 4506 3152 4592 
Q 2822 4678 2451 4678 
Q 1907 4678 1500 4476 
Q 1094 4275 822 3936 
Q 550 3597 412 3145 
Q 275 2694 275 2195 
Q 275 1747 422 1331 
Q 570 915 851 595 
Q 1133 275 1536 86 
Q 1939 -102 2451 -102 
Q 2854 -102 3251 54 
Q 3648 211 3917 570 
z
" transform="scale(0.015625)"/>
      <path id="HelveticaNeue-3d" d="M 307 1190 
L 307 755 
L 3533 755 
L 3533 1190 
L 307 1190 
z
M 3533 2048 
L 3533 2483 
L 307 2483 
L 307 2048 
L 3533 2048 
z
" transform="scale(0.015625)"/>
     </defs>
     <use xlink:href="#HelveticaNeue-47"/>
     <use xlink:href="#HelveticaNeue-61" transform="translate(75.899994 0)"/>
     <use xlink:href="#HelveticaNeue-70" transform="translate(129.599991 0)"/>
     <use xlink:href="#HelveticaNeue-20" transform="translate(188.899979 0)"/>
     <use xlink:href="#HelveticaNeue-28" transform="translate(216.699966 0)"/>
     <use xlink:href="#HelveticaNeue-70" transform="translate(242.59996 0)"/>
     <use xlink:href="#HelveticaNeue-65" transform="translate(301.899948 0)"/>
     <use xlink:href="#HelveticaNeue-72" transform="translate(355.599945 0)"/>
     <use xlink:href="#HelveticaNeue-63" transform="translate(387.149933 0)"/>
     <use xlink:href="#HelveticaNeue-65" transform="translate(440.84993 0)"/>
     <use xlink:href="#HelveticaNeue-6e" transform="translate(494.549927 0)"/>
     <use xlink:href="#HelveticaNeue-74" transform="translate(550.149918 0)"/>
     <use xlink:href="#HelveticaNeue-61" transform="translate(581.649902 0)"/>
     <use xlink:href="#HelveticaNeue-67" transform="translate(635.349899 0)"/>
     <use xlink:href="#HelveticaNeue-65" transform="translate(692.749893 0)"/>
     <use xlink:href="#HelveticaNeue-20" transform="translate(746.44989 0)"/>
     <use xlink:href="#HelveticaNeue-70" transform="translate(774.249878 0)"/>
     <use xlink:href="#HelveticaNeue-6f" transform="translate(833.549866 0)"/>
     <use xlink:href="#HelveticaNeue-69" transform="translate(890.94986 0)"/>
     <use xlink:href="#HelveticaNeue-6e" transform="translate(913.149857 0)"/>
     <use xlink:href="#HelveticaNeue-74" transform="translate(968.749847 0)"/>
     <use xlink:href="#HelveticaNeue-73" transform="translate(1000.249832 0)"/>
     <use xlink:href="#HelveticaNeue-29" transform="translate(1050.249817 0)"/>
     <use xlink:href="#HelveticaNeue-20" transform="translate(1076.149811 0)"/>
     <use xlink:href="#HelveticaNeue-3d" transform="translate(1103.949799 0)"/>
     <use xlink:href="#HelveticaNeue-20" transform="translate(1163.949783 0)"/>
     <use xlink:href="#HelveticaNeue-65" transform="translate(1191.749771 0)"/>
     <use xlink:href="#HelveticaNeue-61" transform="translate(1245.449768 0)"/>
     <use xlink:href="#HelveticaNeue-73" transform="translate(1299.149765 0)"/>
     <use xlink:href="#HelveticaNeue-69" transform="translate(1349.14975 0)"/>
     <use xlink:href="#HelveticaNeue-65" transform="translate(1371.349747 0)"/>
     <use xlink:href="#HelveticaNeue-73" transform="translate(1425.049744 0)"/>
     <use xlink:href="#HelveticaNeue-74" transform="translate(1475.049728 0)"/>
     <use xlink:href="#HelveticaNeue-20" transform="translate(1506.549713 0)"/>
     <use xlink:href="#HelveticaNeue-73" transform="translate(1534.349701 0)"/>
     <use xlink:href="#HelveticaNeue-74" transform="translate(1584.349686 0)"/>
     <use xlink:href="#HelveticaNeue-65" transform="translate(1615.84967 0)"/>
     <use xlink:href="#HelveticaNeue-6d" transform="translate(1669.549667 0)"/>
     <use xlink:href="#HelveticaNeue-20" transform="translate(1754.849655 0)"/>
     <use xlink:href="#HelveticaNeue-70" transform="translate(1782.649643 0)"/>
     <use xlink:href="#HelveticaNeue-6f" transform="translate(1841.949631 0)"/>
     <use xlink:href="#HelveticaNeue-6f" transform="translate(1899.349625 0)"/>
     <use xlink:href="#HelveticaNeue-6c" transform="translate(1956.749619 0)"/>
     <use xlink:href="#HelveticaNeue-65" transform="translate(1978.949615 0)"/>
     <use xlink:href="#HelveticaNeue-64" transform="translate(2032.649612 0)"/>
     <use xlink:href="#HelveticaNeue-20" transform="translate(2091.9496 0)"/>
     <use xlink:href="#HelveticaNeue-6b" transform="translate(2119.749588 0)"/>
     <use xlink:href="#HelveticaNeue-65" transform="translate(2171.649582 0)"/>
     <use xlink:href="#HelveticaNeue-79" transform="translate(2225.349579 0)"/>
     <use xlink:href="#HelveticaNeue-65" transform="translate(2275.349564 0)"/>
     <use xlink:href="#HelveticaNeue-64" transform="translate(2329.049561 0)"/>
     <use xlink:href="#HelveticaNeue-20" transform="translate(2388.349548 0)"/>
     <use xlink:href="#HelveticaNeue-25" transform="translate(2416.149536 0)"/>
     <use xlink:href="#HelveticaNeue-20" transform="translate(2516.149521 0)"/>
     <use xlink:href="#HelveticaNeue-6d" transform="translate(2543.949509 0)"/>
     <use xlink:href="#HelveticaNeue-69" transform="translate(2629.249496 0)"/>
     <use xlink:href="#HelveticaNeue-6e" transform="translate(2651.449493 0)"/>
     <use xlink:href="#HelveticaNeue-75" transform="translate(2707.049484 0)"/>
     <use xlink:href="#HelveticaNeue-73" transform="translate(2762.649475 0)"/>
     <use xlink:href="#HelveticaNeue-20" transform="translate(2812.64946 0)"/>
     <use xlink:href="#HelveticaNeue-74" transform="translate(2840.449448 0)"/>
     <use xlink:href="#HelveticaNeue-68" transform="translate(2871.949432 0)"/>
     <use xlink:href="#HelveticaNeue-69" transform="translate(2927.549423 0)"/>
     <use xlink:href="#HelveticaNeue-73" transform="translate(2949.74942 0)"/>
     <use xlink:href="#HelveticaNeue-20" transform="translate(2999.749405 0)"/>
     <use xlink:href="#HelveticaNeue-73" transform="translate(3027.549393 0)"/>
     <use xlink:href="#HelveticaNeue-74" transform="translate(3077.549377 0)"/>
     <use xlink:href="#HelveticaNeue-65" transform="translate(3109.049362 0)"/>
     <use xlink:href="#HelveticaNeue-6d" transform="translate(3162.749359 0)"/>
     <use xlink:href="#HelveticaNeue-20" transform="translate(3248.049347 0)"/>
     <use xlink:href="#HelveticaNeue-70" transform="translate(3275.849335 0)"/>
     <use xlink:href="#HelveticaNeue-6f" transform="translate(3335.149323 0)"/>
     <use xlink:href="#HelveticaNeue-6f" transform="translate(3392.549316 0)"/>
     <use xlink:href="#HelveticaNeue-6c" transform="translate(3449.94931 0)"/>
     <use xlink:href="#HelveticaNeue-65" transform="translate(3472.149307 0)"/>
     <use xlink:href="#HelveticaNeue-64" transform="translate(3525.849304 0)"/>
     <use xlink:href="#HelveticaNeue-20" transform="translate(3585.149292 0)"/>
     <use xlink:href="#HelveticaNeue-6b" transform="translate(3612.94928 0)"/>
     <use xlink:href="#HelveticaNeue-65" transform="translate(3664.849274 0)"/>
     <use xlink:href="#HelveticaNeue-79" transform="translate(3718.549271 0)"/>
     <use xlink:href="#HelveticaNeue-65" transform="translate(3768.549255 0)"/>
     <use xlink:href="#HelveticaNeue-64" transform="translate(3822.249252 0)"/>
     <use xlink:href="#HelveticaNeue-20" transform="translate(3881.54924 0)"/>
     <use xlink:href="#HelveticaNeue-25" transform="translate(3909.349228 0)"/>
     <use xlink:href="#HelveticaNeue-20" transform="translate(4009.349213 0)"/>
     <use xlink:href="#HelveticaNeue-28" transform="translate(4037.1492 0)"/>
     <use xlink:href="#HelveticaNeue-6c" transform="translate(4063.049194 0)"/>
     <use xlink:href="#HelveticaNeue-61" transform="translate(4085.249191 0)"/>
     <use xlink:href="#HelveticaNeue-72" transform="translate(4138.949188 0)"/>
     <use xlink:href="#HelveticaNeue-67" transform="translate(4169.499176 0)"/>
     <use xlink:href="#HelveticaNeue-65" transform="translate(4226.89917 0)"/>
     <use xlink:href="#HelveticaNeue-72" transform="translate(4280.599167 0)"/>
     <use xlink:href="#HelveticaNeue-20" transform="translate(4313.899155 0)"/>
     <use xlink:href="#HelveticaNeue-3d" transform="translate(4341.699142 0)"/>
     <use xlink:href="#HelveticaNeue-20" transform="translate(4401.699127 0)"/>
     <use xlink:href="#HelveticaNeue-68" transform="translate(4429.499115 0)"/>
     <use xlink:href="#HelveticaNeue-61" transform="translate(4485.099106 0)"/>
     <use xlink:href="#HelveticaNeue-72" transform="translate(4538.799103 0)"/>
     <use xlink:href="#HelveticaNeue-64" transform="translate(4570.349091 0)"/>
     <use xlink:href="#HelveticaNeue-65" transform="translate(4629.649078 0)"/>
     <use xlink:href="#HelveticaNeue-72" transform="translate(4683.349075 0)"/>
     <use xlink:href="#HelveticaNeue-20" transform="translate(4716.649063 0)"/>
     <use xlink:href="#HelveticaNeue-76" transform="translate(4744.449051 0)"/>
     <use xlink:href="#HelveticaNeue-73" transform="translate(4794.449036 0)"/>
     <use xlink:href="#HelveticaNeue-20" transform="translate(4844.44902 0)"/>
     <use xlink:href="#HelveticaNeue-62" transform="translate(4872.249008 0)"/>
     <use xlink:href="#HelveticaNeue-65" transform="translate(4931.548996 0)"/>
     <use xlink:href="#HelveticaNeue-73" transform="translate(4985.248993 0)"/>
     <use xlink:href="#HelveticaNeue-74" transform="translate(5035.248978 0)"/>
     <use xlink:href="#HelveticaNeue-20" transform="translate(5066.748962 0)"/>
     <use xlink:href="#HelveticaNeue-69" transform="translate(5094.54895 0)"/>
     <use xlink:href="#HelveticaNeue-74" transform="translate(5116.748947 0)"/>
     <use xlink:href="#HelveticaNeue-65" transform="translate(5148.248932 0)"/>
     <use xlink:href="#HelveticaNeue-6d" transform="translate(5201.948929 0)"/>
     <use xlink:href="#HelveticaNeue-29" transform="translate(5287.248917 0)"/>
     <use xlink:href="#HelveticaNeue-2e" transform="translate(5313.148911 0)"/>
    </g>
   </g>
  </g>
  <g id="text_24">
   <!-- Relative difficulty ≈ pooled item % distance from class-best stem — not alphabetical order. Easiest stem = highest pooled keyed % among 3A–3F. Gold row = largest gap below that benchmark. -->
   <g style="fill: #333333" transform="translate(7.2 702.067016) scale(0.13 -0.13)">
    <defs>
     <path id="HelveticaNeue-2248" d="M 230 544 
Q 256 717 310 886 
Q 365 1056 464 1190 
Q 563 1325 707 1408 
Q 851 1491 1056 1491 
Q 1267 1491 1494 1420 
Q 1722 1350 1952 1264 
Q 2182 1178 2400 1107 
Q 2618 1037 2810 1037 
Q 3027 1037 3139 1177 
Q 3251 1318 3290 1510 
L 3610 1510 
Q 3590 1331 3536 1164 
Q 3482 998 3382 867 
Q 3283 736 3136 659 
Q 2989 582 2784 582 
Q 2579 582 2342 652 
Q 2106 723 1869 809 
Q 1632 896 1417 969 
Q 1203 1043 1043 1043 
Q 838 1043 713 886 
Q 589 730 563 544 
L 230 544 
L 230 544 
z
M 230 1696 
Q 256 1869 310 2038 
Q 365 2208 464 2342 
Q 563 2477 707 2560 
Q 851 2643 1056 2643 
Q 1267 2643 1494 2572 
Q 1722 2502 1952 2416 
Q 2182 2330 2400 2259 
Q 2618 2189 2810 2189 
Q 3027 2189 3139 2329 
Q 3251 2470 3290 2662 
L 3610 2662 
Q 3590 2483 3536 2316 
Q 3482 2150 3382 2019 
Q 3283 1888 3136 1811 
Q 2989 1734 2784 1734 
Q 2579 1734 2342 1804 
Q 2106 1875 1869 1961 
Q 1632 2048 1417 2121 
Q 1203 2195 1043 2195 
Q 838 2195 713 2038 
Q 589 1882 563 1696 
L 230 1696 
L 230 1696 
z
" transform="scale(0.015625)"/>
     <path id="HelveticaNeue-2013" d="M 0 2035 
L 0 1523 
L 3200 1523 
L 3200 2035 
L 0 2035 
z
" transform="scale(0.015625)"/>
    </defs>
    <use xlink:href="#HelveticaNeue-52"/>
    <use xlink:href="#HelveticaNeue-65" transform="translate(68.499985 0)"/>
    <use xlink:href="#HelveticaNeue-6c" transform="translate(122.199982 0)"/>
    <use xlink:href="#HelveticaNeue-61" transform="translate(144.399979 0)"/>
    <use xlink:href="#HelveticaNeue-74" transform="translate(198.099976 0)"/>
    <use xlink:href="#HelveticaNeue-69" transform="translate(229.59996 0)"/>
    <use xlink:href="#HelveticaNeue-76" transform="translate(251.799957 0)"/>
    <use xlink:href="#HelveticaNeue-65" transform="translate(301.799942 0)"/>
    <use xlink:href="#HelveticaNeue-20" transform="translate(355.499939 0)"/>
    <use xlink:href="#HelveticaNeue-64" transform="translate(383.299927 0)"/>
    <use xlink:href="#HelveticaNeue-69" transform="translate(442.599915 0)"/>
    <use xlink:href="#HelveticaNeue-66" transform="translate(464.799911 0)"/>
    <use xlink:href="#HelveticaNeue-66" transform="translate(492.649902 0)"/>
    <use xlink:href="#HelveticaNeue-69" transform="translate(522.249893 0)"/>
    <use xlink:href="#HelveticaNeue-63" transform="translate(544.44989 0)"/>
    <use xlink:href="#HelveticaNeue-75" transform="translate(598.149887 0)"/>
    <use xlink:href="#HelveticaNeue-6c" transform="translate(653.749878 0)"/>
    <use xlink:href="#HelveticaNeue-74" transform="translate(675.949875 0)"/>
    <use xlink:href="#HelveticaNeue-79" transform="translate(707.44986 0)"/>
    <use xlink:href="#HelveticaNeue-20" transform="translate(757.449844 0)"/>
    <use xlink:href="#HelveticaNeue-2248" transform="translate(785.249832 0)"/>
    <use xlink:href="#HelveticaNeue-20" transform="translate(845.249817 0)"/>
    <use xlink:href="#HelveticaNeue-70" transform="translate(873.049805 0)"/>
    <use xlink:href="#HelveticaNeue-6f" transform="translate(932.349792 0)"/>
    <use xlink:href="#HelveticaNeue-6f" transform="translate(989.749786 0)"/>
    <use xlink:href="#HelveticaNeue-6c" transform="translate(1047.14978 0)"/>
    <use xlink:href="#HelveticaNeue-65" transform="translate(1069.349777 0)"/>
    <use xlink:href="#HelveticaNeue-64" transform="translate(1123.049774 0)"/>
    <use xlink:href="#HelveticaNeue-20" transform="translate(1182.349762 0)"/>
    <use xlink:href="#HelveticaNeue-69" transform="translate(1210.14975 0)"/>
    <use xlink:href="#HelveticaNeue-74" transform="translate(1232.349747 0)"/>
    <use xlink:href="#HelveticaNeue-65" transform="translate(1263.849731 0)"/>
    <use xlink:href="#HelveticaNeue-6d" transform="translate(1317.549728 0)"/>
    <use xlink:href="#HelveticaNeue-20" transform="translate(1402.849716 0)"/>
    <use xlink:href="#HelveticaNeue-25" transform="translate(1430.649704 0)"/>
    <use xlink:href="#HelveticaNeue-20" transform="translate(1530.649689 0)"/>
    <use xlink:href="#HelveticaNeue-64" transform="translate(1558.449677 0)"/>
    <use xlink:href="#HelveticaNeue-69" transform="translate(1617.749664 0)"/>
    <use xlink:href="#HelveticaNeue-73" transform="translate(1639.949661 0)"/>
    <use xlink:href="#HelveticaNeue-74" transform="translate(1689.949646 0)"/>
    <use xlink:href="#HelveticaNeue-61" transform="translate(1721.449631 0)"/>
    <use xlink:href="#HelveticaNeue-6e" transform="translate(1775.149628 0)"/>
    <use xlink:href="#HelveticaNeue-63" transform="translate(1830.749619 0)"/>
    <use xlink:href="#HelveticaNeue-65" transform="translate(1884.449615 0)"/>
    <use xlink:href="#HelveticaNeue-20" transform="translate(1938.149612 0)"/>
    <use xlink:href="#HelveticaNeue-66" transform="translate(1965.9496 0)"/>
    <use xlink:href="#HelveticaNeue-72" transform="translate(1995.549591 0)"/>
    <use xlink:href="#HelveticaNeue-6f" transform="translate(2027.099579 0)"/>
    <use xlink:href="#HelveticaNeue-6d" transform="translate(2084.499573 0)"/>
    <use xlink:href="#HelveticaNeue-20" transform="translate(2169.799561 0)"/>
    <use xlink:href="#HelveticaNeue-63" transform="translate(2197.599548 0)"/>
    <use xlink:href="#HelveticaNeue-6c" transform="translate(2251.299545 0)"/>
    <use xlink:href="#HelveticaNeue-61" transform="translate(2273.499542 0)"/>
    <use xlink:href="#HelveticaNeue-73" transform="translate(2327.199539 0)"/>
    <use xlink:href="#HelveticaNeue-73" transform="translate(2377.199524 0)"/>
    <use xlink:href="#HelveticaNeue-2d" transform="translate(2427.199509 0)"/>
    <use xlink:href="#HelveticaNeue-62" transform="translate(2466.099503 0)"/>
    <use xlink:href="#HelveticaNeue-65" transform="translate(2525.39949 0)"/>
    <use xlink:href="#HelveticaNeue-73" transform="translate(2579.099487 0)"/>
    <use xlink:href="#HelveticaNeue-74" transform="translate(2629.099472 0)"/>
    <use xlink:href="#HelveticaNeue-20" transform="translate(2660.599457 0)"/>
    <use xlink:href="#HelveticaNeue-73" transform="translate(2688.399445 0)"/>
    <use xlink:href="#HelveticaNeue-74" transform="translate(2738.399429 0)"/>
    <use xlink:href="#HelveticaNeue-65" transform="translate(2769.899414 0)"/>
    <use xlink:href="#HelveticaNeue-6d" transform="translate(2823.599411 0)"/>
    <use xlink:href="#HelveticaNeue-20" transform="translate(2908.899399 0)"/>
    <use xlink:href="#HelveticaNeue-2014" transform="translate(2936.699387 0)"/>
    <use xlink:href="#HelveticaNeue-20" transform="translate(3036.699371 0)"/>
    <use xlink:href="#HelveticaNeue-6e" transform="translate(3064.499359 0)"/>
    <use xlink:href="#HelveticaNeue-6f" transform="translate(3120.09935 0)"/>
    <use xlink:href="#HelveticaNeue-74" transform="translate(3177.499344 0)"/>
    <use xlink:href="#HelveticaNeue-20" transform="translate(3208.999329 0)"/>
    <use xlink:href="#HelveticaNeue-61" transform="translate(3236.799316 0)"/>
    <use xlink:href="#HelveticaNeue-6c" transform="translate(3290.499313 0)"/>
    <use xlink:href="#HelveticaNeue-70" transform="translate(3312.69931 0)"/>
    <use xlink:href="#HelveticaNeue-68" transform="translate(3371.999298 0)"/>
    <use xlink:href="#HelveticaNeue-61" transform="translate(3427.599289 0)"/>
    <use xlink:href="#HelveticaNeue-62" transform="translate(3481.299286 0)"/>
    <use xlink:href="#HelveticaNeue-65" transform="translate(3540.599274 0)"/>
    <use xlink:href="#HelveticaNeue-74" transform="translate(3594.299271 0)"/>
    <use xlink:href="#HelveticaNeue-69" transform="translate(3625.799255 0)"/>
    <use xlink:href="#HelveticaNeue-63" transform="translate(3647.999252 0)"/>
    <use xlink:href="#HelveticaNeue-61" transform="translate(3701.699249 0)"/>
    <use xlink:href="#HelveticaNeue-6c" transform="translate(3755.399246 0)"/>
    <use xlink:href="#HelveticaNeue-20" transform="translate(3777.599243 0)"/>
    <use xlink:href="#HelveticaNeue-6f" transform="translate(3805.399231 0)"/>
    <use xlink:href="#HelveticaNeue-72" transform="translate(3862.799225 0)"/>
    <use xlink:href="#HelveticaNeue-64" transform="translate(3894.349213 0)"/>
    <use xlink:href="#HelveticaNeue-65" transform="translate(3953.6492 0)"/>
    <use xlink:href="#HelveticaNeue-72" transform="translate(4007.349197 0)"/>
    <use xlink:href="#HelveticaNeue-2e" transform="translate(4031.399185 0)"/>
    <use xlink:href="#HelveticaNeue-20" transform="translate(4059.199173 0)"/>
    <use xlink:href="#HelveticaNeue-45" transform="translate(4086.999161 0)"/>
    <use xlink:href="#HelveticaNeue-61" transform="translate(4148.099152 0)"/>
    <use xlink:href="#HelveticaNeue-73" transform="translate(4201.799149 0)"/>
    <use xlink:href="#HelveticaNeue-69" transform="translate(4251.799133 0)"/>
    <use xlink:href="#HelveticaNeue-65" transform="translate(4273.99913 0)"/>
    <use xlink:href="#HelveticaNeue-73" transform="translate(4327.699127 0)"/>
    <use xlink:href="#HelveticaNeue-74" transform="translate(4377.699112 0)"/>
    <use xlink:href="#HelveticaNeue-20" transform="translate(4409.199097 0)"/>
    <use xlink:href="#HelveticaNeue-73" transform="translate(4436.999084 0)"/>
    <use xlink:href="#HelveticaNeue-74" transform="translate(4486.999069 0)"/>
    <use xlink:href="#HelveticaNeue-65" transform="translate(4518.499054 0)"/>
    <use xlink:href="#HelveticaNeue-6d" transform="translate(4572.199051 0)"/>
    <use xlink:href="#HelveticaNeue-20" transform="translate(4657.499039 0)"/>
    <use xlink:href="#HelveticaNeue-3d" transform="translate(4685.299026 0)"/>
    <use xlink:href="#HelveticaNeue-20" transform="translate(4745.299011 0)"/>
    <use xlink:href="#HelveticaNeue-68" transform="translate(4773.098999 0)"/>
    <use xlink:href="#HelveticaNeue-69" transform="translate(4828.69899 0)"/>
    <use xlink:href="#HelveticaNeue-67" transform="translate(4850.898987 0)"/>
    <use xlink:href="#HelveticaNeue-68" transform="translate(4908.298981 0)"/>
    <use xlink:href="#HelveticaNeue-65" transform="translate(4963.898972 0)"/>
    <use xlink:href="#HelveticaNeue-73" transform="translate(5017.598969 0)"/>
    <use xlink:href="#HelveticaNeue-74" transform="translate(5067.598953 0)"/>
    <use xlink:href="#HelveticaNeue-20" transform="translate(5099.098938 0)"/>
    <use xlink:href="#HelveticaNeue-70" transform="translate(5126.898926 0)"/>
    <use xlink:href="#HelveticaNeue-6f" transform="translate(5186.198914 0)"/>
    <use xlink:href="#HelveticaNeue-6f" transform="translate(5243.598907 0)"/>
    <use xlink:href="#HelveticaNeue-6c" transform="translate(5300.998901 0)"/>
    <use xlink:href="#HelveticaNeue-65" transform="translate(5323.198898 0)"/>
    <use xlink:href="#HelveticaNeue-64" transform="translate(5376.898895 0)"/>
    <use xlink:href="#HelveticaNeue-20" transform="translate(5436.198883 0)"/>
    <use xlink:href="#HelveticaNeue-6b" transform="translate(5463.998871 0)"/>
    <use xlink:href="#HelveticaNeue-65" transform="translate(5515.898865 0)"/>
    <use xlink:href="#HelveticaNeue-79" transform="translate(5569.598862 0)"/>
    <use xlink:href="#HelveticaNeue-65" transform="translate(5619.598846 0)"/>
    <use xlink:href="#HelveticaNeue-64" transform="translate(5673.298843 0)"/>
    <use xlink:href="#HelveticaNeue-20" transform="translate(5732.598831 0)"/>
    <use xlink:href="#HelveticaNeue-25" transform="translate(5760.398819 0)"/>
    <use xlink:href="#HelveticaNeue-20" transform="translate(5860.398804 0)"/>
    <use xlink:href="#HelveticaNeue-61" transform="translate(5888.198792 0)"/>
    <use xlink:href="#HelveticaNeue-6d" transform="translate(5941.898788 0)"/>
    <use xlink:href="#HelveticaNeue-6f" transform="translate(6027.198776 0)"/>
    <use xlink:href="#HelveticaNeue-6e" transform="translate(6084.59877 0)"/>
    <use xlink:href="#HelveticaNeue-67" transform="translate(6140.198761 0)"/>
    <use xlink:href="#HelveticaNeue-20" transform="translate(6197.598755 0)"/>
    <use xlink:href="#HelveticaNeue-33" transform="translate(6225.398743 0)"/>
    <use xlink:href="#HelveticaNeue-41" transform="translate(6280.998734 0)"/>
    <use xlink:href="#HelveticaNeue-2013" transform="translate(6345.798721 0)"/>
    <use xlink:href="#HelveticaNeue-33" transform="translate(6395.798706 0)"/>
    <use xlink:href="#HelveticaNeue-46" transform="translate(6451.398697 0)"/>
    <use xlink:href="#HelveticaNeue-2e" transform="translate(6493.048691 0)"/>
    <use xlink:href="#HelveticaNeue-20" transform="translate(6520.848679 0)"/>
    <use xlink:href="#HelveticaNeue-47" transform="translate(6548.648666 0)"/>
    <use xlink:href="#HelveticaNeue-6f" transform="translate(6624.54866 0)"/>
    <use xlink:href="#HelveticaNeue-6c" transform="translate(6681.948654 0)"/>
    <use xlink:href="#HelveticaNeue-64" transform="translate(6704.148651 0)"/>
    <use xlink:href="#HelveticaNeue-20" transform="translate(6763.448639 0)"/>
    <use xlink:href="#HelveticaNeue-72" transform="translate(6791.248627 0)"/>
    <use xlink:href="#HelveticaNeue-6f" transform="translate(6822.798615 0)"/>
    <use xlink:href="#HelveticaNeue-77" transform="translate(6880.198608 0)"/>
    <use xlink:href="#HelveticaNeue-20" transform="translate(6955.998596 0)"/>
    <use xlink:href="#HelveticaNeue-3d" transform="translate(6983.798584 0)"/>
    <use xlink:href="#HelveticaNeue-20" transform="translate(7043.798569 0)"/>
    <use xlink:href="#HelveticaNeue-6c" transform="translate(7071.598557 0)"/>
    <use xlink:href="#HelveticaNeue-61" transform="translate(7093.798553 0)"/>
    <use xlink:href="#HelveticaNeue-72" transform="translate(7147.49855 0)"/>
    <use xlink:href="#HelveticaNeue-67" transform="translate(7178.048538 0)"/>
    <use xlink:href="#HelveticaNeue-65" transform="translate(7235.448532 0)"/>
    <use xlink:href="#HelveticaNeue-73" transform="translate(7289.148529 0)"/>
    <use xlink:href="#HelveticaNeue-74" transform="translate(7339.148514 0)"/>
    <use xlink:href="#HelveticaNeue-20" transform="translate(7370.648499 0)"/>
    <use xlink:href="#HelveticaNeue-67" transform="translate(7398.448486 0)"/>
    <use xlink:href="#HelveticaNeue-61" transform="translate(7455.84848 0)"/>
    <use xlink:href="#HelveticaNeue-70" transform="translate(7509.548477 0)"/>
    <use xlink:href="#HelveticaNeue-20" transform="translate(7568.848465 0)"/>
    <use xlink:href="#HelveticaNeue-62" transform="translate(7596.648453 0)"/>
    <use xlink:href="#HelveticaNeue-65" transform="translate(7655.948441 0)"/>
    <use xlink:href="#HelveticaNeue-6c" transform="translate(7709.648438 0)"/>
    <use xlink:href="#HelveticaNeue-6f" transform="translate(7731.848434 0)"/>
    <use xlink:href="#HelveticaNeue-77" transform="translate(7789.248428 0)"/>
    <use xlink:href="#HelveticaNeue-20" transform="translate(7865.048416 0)"/>
    <use xlink:href="#HelveticaNeue-74" transform="translate(7892.848404 0)"/>
    <use xlink:href="#HelveticaNeue-68" transform="translate(7924.348389 0)"/>
    <use xlink:href="#HelveticaNeue-61" transform="translate(7979.94838 0)"/>
    <use xlink:href="#HelveticaNeue-74" transform="translate(8033.648376 0)"/>
    <use xlink:href="#HelveticaNeue-20" transform="translate(8065.148361 0)"/>
    <use xlink:href="#HelveticaNeue-62" transform="translate(8092.948349 0)"/>
    <use xlink:href="#HelveticaNeue-65" transform="translate(8152.248337 0)"/>
    <use xlink:href="#HelveticaNeue-6e" transform="translate(8205.948334 0)"/>
    <use xlink:href="#HelveticaNeue-63" transform="translate(8261.548325 0)"/>
    <use xlink:href="#HelveticaNeue-68" transform="translate(8315.248322 0)"/>
    <use xlink:href="#HelveticaNeue-6d" transform="translate(8370.848312 0)"/>
    <use xlink:href="#HelveticaNeue-61" transform="translate(8456.1483 0)"/>
    <use xlink:href="#HelveticaNeue-72" transform="translate(8509.848297 0)"/>
    <use xlink:href="#HelveticaNeue-6b" transform="translate(8543.148285 0)"/>
    <use xlink:href="#HelveticaNeue-2e" transform="translate(8595.048279 0)"/>
   </g>
  </g>
 </g>
 <defs>
  <clipPath id="p0198ecc352">
   <rect x="265.284844" y="57.955016" width="856.8" height="521.64"/>
  </clipPath>
 </defs>
</svg>
